<svg viewBox="0 0 50 50" xmlns="http://www.w3.org/2000/svg">
<path d="M34.275 26.775C34.5026 26.5372 34.681 26.2569 34.8 25.95C35.0501 25.3413 35.0501 24.6587 34.8 24.05C34.681 23.7431 34.5026 23.4628 34.275 23.225L26.775 15.725C26.3043 15.2542 25.6658 14.9898 25 14.9898C24.3343 14.9898 23.6958 15.2542 23.225 15.725C22.7543 16.1958 22.4898 16.8342 22.4898 17.5C22.4898 18.1658 22.7543 18.8042 23.225 19.275L26.475 22.5H17.5C16.837 22.5 16.2011 22.7634 15.7322 23.2322C15.2634 23.7011 15 24.337 15 25C15 25.663 15.2634 26.2989 15.7322 26.7678C16.2011 27.2366 16.837 27.5 17.5 27.5H26.475L23.225 30.725C22.9907 30.9574 22.8047 31.2339 22.6778 31.5386C22.5509 31.8432 22.4855 32.17 22.4855 32.5C22.4855 32.83 22.5509 33.1568 22.6778 33.4614C22.8047 33.7661 22.9907 34.0426 23.225 34.275C23.4574 34.5093 23.7339 34.6953 24.0386 34.8222C24.3432 34.9491 24.67 35.0145 25 35.0145C25.33 35.0145 25.6568 34.9491 25.9615 34.8222C26.2661 34.6953 26.5426 34.5093 26.775 34.275L34.275 26.775ZM50 25C50 20.0555 48.5338 15.222 45.7867 11.1107C43.0397 6.99952 39.1353 3.7952 34.5671 1.90301C29.9989 0.0108185 24.9723 -0.484265 20.1228 0.480366C15.2732 1.445 10.8187 3.82602 7.32234 7.32233C3.82603 10.8186 1.44501 15.2732 0.480379 20.1227C-0.484251 24.9723 0.0108321 29.9989 1.90302 34.5671C3.79521 39.1352 6.99953 43.0397 11.1108 45.7867C15.222 48.5338 20.0555 50 25 50C31.6304 50 37.9893 47.3661 42.6777 42.6777C44.9991 40.3562 46.8406 37.6002 48.097 34.5671C49.3534 31.5339 50 28.283 50 25V25ZM5.00001 25C5.00001 21.0444 6.17299 17.1776 8.37062 13.8886C10.5682 10.5996 13.6918 8.03616 17.3463 6.52241C21.0009 5.00865 25.0222 4.61259 28.9018 5.38429C32.7814 6.156 36.3451 8.06081 39.1421 10.8579C41.9392 13.6549 43.844 17.2186 44.6157 21.0982C45.3874 24.9778 44.9914 28.9991 43.4776 32.6537C41.9638 36.3082 39.4004 39.4318 36.1114 41.6294C32.8224 43.827 28.9556 45 25 45C19.6957 45 14.6086 42.8929 10.8579 39.1421C7.10715 35.3914 5.00001 30.3043 5.00001 25V25Z" fill="#FFBC57"/>
</svg>
