<svg width="50" height="50" viewBox="0 0 50 50" fill="none" xmlns="http://www.w3.org/2000/svg">
<path d="M15.725 23.225C15.4974 23.4628 15.319 23.7431 15.2 24.05C14.9499 24.6587 14.9499 25.3413 15.2 25.95C15.319 26.2569 15.4974 26.5372 15.725 26.775L23.225 34.275C23.6957 34.7458 24.3342 35.0102 25 35.0102C25.6657 35.0102 26.3042 34.7458 26.775 34.275C27.2457 33.8042 27.5102 33.1658 27.5102 32.5C27.5102 31.8342 27.2457 31.1958 26.775 30.725L23.525 27.5H32.5C33.163 27.5 33.7989 27.2366 34.2678 26.7678C34.7366 26.2989 35 25.663 35 25C35 24.337 34.7366 23.7011 34.2678 23.2322C33.7989 22.7634 33.163 22.5 32.5 22.5H23.525L26.775 19.275C27.0093 19.0426 27.1953 18.7661 27.3222 18.4614C27.4491 18.1568 27.5145 17.83 27.5145 17.5C27.5145 17.17 27.4491 16.8432 27.3222 16.5386C27.1953 16.2339 27.0093 15.9574 26.775 15.725C26.5426 15.4907 26.2661 15.3047 25.9614 15.1778C25.6568 15.0509 25.33 14.9855 25 14.9855C24.67 14.9855 24.3432 15.0509 24.0385 15.1778C23.7339 15.3047 23.4574 15.4907 23.225 15.725L15.725 23.225ZM-9.53674e-06 25C-9.53674e-06 29.9445 1.46622 34.778 4.21325 38.8893C6.96029 43.0005 10.8647 46.2048 15.4329 48.097C20.0011 49.9892 25.0277 50.4843 29.8772 49.5196C34.7268 48.555 39.1813 46.174 42.6777 42.6777C46.174 39.1814 48.555 34.7268 49.5196 29.8773C50.4843 25.0277 49.9892 20.0011 48.097 15.4329C46.2048 10.8648 43.0005 6.9603 38.8892 4.21326C34.778 1.46622 29.9445 0 25 0C18.3696 0 12.0107 2.63392 7.32232 7.32233C5.00086 9.6438 3.15937 12.3998 1.903 15.4329C0.646632 18.4661 -9.53674e-06 21.717 -9.53674e-06 25V25ZM45 25C45 28.9556 43.827 32.8224 41.6294 36.1114C39.4318 39.4004 36.3082 41.9638 32.6537 43.4776C28.9991 44.9913 24.9778 45.3874 21.0982 44.6157C17.2186 43.844 13.6549 41.9392 10.8579 39.1421C8.0608 36.3451 6.15599 32.7814 5.38428 28.9018C4.61258 25.0222 5.00865 21.0009 6.5224 17.3463C8.03615 13.6918 10.5996 10.5682 13.8886 8.37061C17.1776 6.17298 21.0444 5 25 5C30.3043 5 35.3914 7.10714 39.1421 10.8579C42.8929 14.6086 45 19.6957 45 25V25Z" fill="#FFBC57"/>
</svg>
