<svg aria-hidden="true" style="position: absolute; width: 0; height: 0; overflow: hidden;" version="1.1" xmlns="http://www.w3.org/2000/svg" xmlns:xlink="http://www.w3.org/1999/xlink">
<defs>
<symbol id="icon-adress-icon" viewBox="0 0 32 32">
<path fill="none" opacity="0.2" stroke="#b1b1b1" style="stroke: var(--color1, #b1b1b1)" stroke-linejoin="miter" stroke-linecap="butt" stroke-miterlimit="4" stroke-width="1.28" d="M31.36 16c0 8.483-6.877 15.36-15.36 15.36s-15.36-6.877-15.36-15.36c0-8.483 6.877-15.36 15.36-15.36s15.36 6.877 15.36 15.36z"></path>
<path fill="#b1b1b1" style="fill: var(--color1, #b1b1b1)" d="M15.872 8.96c-1.494 0-2.926 0.593-3.982 1.65s-1.65 2.489-1.65 3.982c0 3.802 4.963 8.096 5.174 8.279 0.127 0.109 0.29 0.169 0.458 0.169s0.33-0.060 0.458-0.169c0.246-0.183 5.174-4.477 5.174-8.279 0-1.494-0.593-2.926-1.65-3.982s-2.489-1.65-3.982-1.65zM15.872 21.386c-1.5-1.408-4.224-4.442-4.224-6.794 0-1.12 0.445-2.195 1.237-2.987s1.867-1.237 2.987-1.237c1.12 0 2.195 0.445 2.987 1.237s1.237 1.867 1.237 2.987c0 2.351-2.724 5.393-4.224 6.794zM15.872 11.776c-0.557 0-1.101 0.165-1.564 0.475s-0.824 0.749-1.037 1.264-0.269 1.081-0.16 1.627c0.109 0.546 0.377 1.048 0.771 1.442s0.896 0.662 1.442 0.771 1.112 0.053 1.627-0.16c0.515-0.213 0.954-0.574 1.264-1.037s0.475-1.008 0.475-1.564c0-0.747-0.297-1.463-0.825-1.991s-1.244-0.825-1.991-0.825zM15.872 16c-0.278 0-0.551-0.083-0.782-0.237s-0.412-0.375-0.519-0.632c-0.107-0.257-0.134-0.54-0.080-0.813s0.188-0.524 0.385-0.721c0.197-0.197 0.448-0.331 0.721-0.385s0.556-0.027 0.813 0.080c0.257 0.107 0.477 0.287 0.632 0.519s0.237 0.504 0.237 0.782c0 0.373-0.148 0.732-0.412 0.996s-0.622 0.412-0.996 0.412z"></path>
</symbol>
<symbol id="icon-arrow" viewBox="0 0 32 32">
<path fill="#ffbc57" style="fill: var(--color2, #ffbc57)" d="M31.786 1.653c-0.27-0.652-0.788-1.169-1.44-1.44-0.321-0.137-0.665-0.209-1.013-0.213h-26.667c-0.707 0-1.386 0.281-1.886 0.781s-0.781 1.178-0.781 1.886c0 0.707 0.281 1.386 0.781 1.886s1.178 0.781 1.886 0.781h20.24l-22.133 22.107c-0.25 0.248-0.448 0.543-0.584 0.868s-0.205 0.674-0.205 1.026 0.070 0.701 0.205 1.026c0.135 0.325 0.334 0.62 0.584 0.868 0.248 0.25 0.543 0.448 0.868 0.584s0.673 0.205 1.026 0.205c0.352 0 0.701-0.070 1.026-0.205s0.62-0.334 0.868-0.584l22.107-22.133v20.24c0 0.707 0.281 1.386 0.781 1.886s1.178 0.781 1.886 0.781c0.707 0 1.386-0.281 1.886-0.781s0.781-1.178 0.781-1.886v-26.667c-0.004-0.348-0.077-0.693-0.213-1.013z"></path>
</symbol>
<symbol id="icon-assembly-icon" viewBox="0 0 32 32">
<path fill="#ffbc57" style="fill: var(--color2, #ffbc57)" d="M15.36 31c3.093 0 5.6-2.507 5.6-5.6s-2.507-5.6-5.6-5.6c-3.093 0-5.6 2.507-5.6 5.6s2.507 5.6 5.6 5.6z"></path>
<path fill="#ffbc57" style="fill: var(--color2, #ffbc57)" d="M5.2 15.4c2.651 0 4.8-2.149 4.8-4.8s-2.149-4.8-4.8-4.8c-2.651 0-4.8 2.149-4.8 4.8s2.149 4.8 4.8 4.8z"></path>
<path fill="#ffbc57" style="fill: var(--color2, #ffbc57)" d="M23.84 19.6c4.418 0 8-3.582 8-8s-3.582-8-8-8c-4.418 0-8 3.582-8 8s3.582 8 8 8z"></path>
<path fill="#fff" style="fill: var(--color3, #fff)" d="M28.32 14.080l-11.2-4-11.2 4 11.2 4 11.2-4z"></path>
<path fill="#fff" style="fill: var(--color3, #fff)" d="M15.12 10.8l-9.2 3.28 9.2 3.32v-6.6z"></path>
<path fill="#fff" style="fill: var(--color3, #fff)" d="M26 14.92l-8.88-3.16v6.32l8.88-3.16z"></path>
<path fill="#2b2929" style="fill: var(--color4, #2b2929)" d="M17.12 18.4c-0.040 0-0.080 0-0.12 0l-11.2-4c-0.12-0.040-0.2-0.16-0.2-0.28s0.080-0.24 0.2-0.28l11.2-4c0.080-0.040 0.12-0.040 0.2 0l11.2 4c0.12 0.040 0.2 0.16 0.2 0.28s-0.080 0.24-0.2 0.28l-11.2 4c-0.040 0-0.080 0-0.080 0zM6.8 14.080l10.32 3.68 10.32-3.68-10.32-3.68-10.32 3.68z"></path>
<path fill="#fff" style="fill: var(--color3, #fff)" d="M15.52 7.28l-11.2 4 1.6 2.8 11.2-4-1.6-2.8z"></path>
<path fill="#fff" style="fill: var(--color3, #fff)" d="M17.12 10.080l-1.6-2.8-2.52 0.92 0.52 0.92c0.24 0.44 0.040 1-0.44 1.16l-7.76 2.76 0.6 1.040 11.2-4z"></path>
<path fill="#2b2929" style="fill: var(--color4, #2b2929)" d="M5.92 14.4c-0.12 0-0.2-0.040-0.28-0.16l-1.6-2.8c-0.040-0.080-0.040-0.16 0-0.24s0.080-0.16 0.2-0.16l11.2-4c0.12-0.040 0.28 0 0.36 0.12l1.6 2.8c0.040 0.080 0.040 0.16 0.040 0.24-0.040 0.080-0.080 0.16-0.2 0.16l-11.24 4.040c-0.040 0-0.080 0-0.080 0zM4.76 11.48l1.28 2.28 10.64-3.8-1.28-2.28-10.64 3.8z"></path>
<path fill="#fff" style="fill: var(--color3, #fff)" d="M18.72 7.28l11.2 4-1.6 2.8-11.2-4 1.6-2.8z"></path>
<path fill="#2b2929" style="fill: var(--color4, #2b2929)" d="M28.32 14.4c-0.040 0-0.080 0-0.12 0l-11.2-4c-0.080-0.040-0.16-0.080-0.2-0.16s-0.040-0.16 0.040-0.24l1.6-2.8c0.080-0.12 0.24-0.2 0.36-0.12l11.2 4c0.080 0.040 0.16 0.080 0.2 0.16s0.040 0.16-0.040 0.24l-1.6 2.8c-0.040 0.080-0.16 0.12-0.24 0.12zM17.56 9.92l10.64 3.8 1.28-2.28-10.64-3.8-1.28 2.28z"></path>
<path fill="#fff" style="fill: var(--color3, #fff)" d="M17.12 28.080l-11.2-4v-10l11.2 4v10z"></path>
<path fill="#fff" style="fill: var(--color3, #fff)" d="M14.56 25.52l-8.64-3.12v-8.32l9.2 3.28v7.76c0 0.28-0.28 0.48-0.56 0.4z"></path>
<path fill="#2b2929" style="fill: var(--color4, #2b2929)" d="M17.12 28.4c-0.040 0-0.080 0-0.12 0l-11.2-4c-0.12-0.040-0.2-0.16-0.2-0.28v-10c0-0.080 0.040-0.2 0.12-0.24s0.2-0.080 0.28-0.040l11.2 4c0.12 0.040 0.2 0.16 0.2 0.28v10c0 0.080-0.040 0.2-0.12 0.24-0.040 0.040-0.12 0.040-0.16 0.040zM6.2 23.88l10.6 3.8v-9.36l-10.6-3.8v9.36z"></path>
<path fill="#fff" style="fill: var(--color3, #fff)" d="M15.52 20.88l-11.2-4 1.6-2.8 11.2 4-1.6 2.8z"></path>
<path fill="#fff" style="fill: var(--color3, #fff)" d="M13.68 19.080l-8.8-3.16 1.040-1.84 9.44 3.36-0.72 1.24c-0.2 0.36-0.6 0.52-0.96 0.4z"></path>
<path fill="#2b2929" style="fill: var(--color4, #2b2929)" d="M15.52 21.2c-0.040 0-0.080 0-0.12 0l-11.2-4c-0.080-0.040-0.16-0.080-0.2-0.16 0-0.12 0-0.2 0.040-0.28l1.6-2.8c0.080-0.12 0.24-0.2 0.36-0.12l11.2 4c0.080 0.040 0.16 0.080 0.2 0.16s0.040 0.16-0.040 0.24l-1.6 2.8c-0.040 0.12-0.16 0.16-0.24 0.16zM4.76 16.72l10.64 3.8 1.28-2.28-10.64-3.8-1.28 2.28z"></path>
<path fill="#fff" style="fill: var(--color3, #fff)" d="M17.12 28.080l11.2-4v-10l-11.2 4v10z"></path>
<path fill="#fff" style="fill: var(--color3, #fff)" d="M17.12 26.32l9.080-3.24c0.32-0.12 0.52-0.4 0.52-0.76v-7.64l-9.6 3.44v8.2z"></path>
<path fill="#2b2929" style="fill: var(--color4, #2b2929)" d="M17.12 28.4c-0.080 0-0.12 0-0.16-0.040-0.080-0.040-0.12-0.16-0.12-0.24v-10c0-0.12 0.080-0.24 0.2-0.28l11.2-4c0.080-0.040 0.2 0 0.28 0.040s0.12 0.16 0.12 0.24v10c0 0.12-0.080 0.24-0.2 0.28l-11.24 4c-0.040 0-0.080 0-0.080 0zM17.4 18.32v9.36l10.6-3.8v-9.36l-10.6 3.8z"></path>
<path fill="#fff" style="fill: var(--color3, #fff)" d="M18.72 20.88l11.2-4-1.6-2.8-11.2 4 1.6 2.8z"></path>
<path fill="#fff" style="fill: var(--color3, #fff)" d="M18.12 19.84l8.48-3.040c0.48-0.16 0.68-0.72 0.44-1.16l-0.52-0.92-9.4 3.36 1 1.76z"></path>
<path fill="#2b2929" style="fill: var(--color4, #2b2929)" d="M18.72 21.2c-0.12 0-0.2-0.040-0.28-0.16l-1.6-2.8c-0.040-0.080-0.040-0.16 0-0.24s0.080-0.16 0.2-0.16l11.2-4c0.12-0.040 0.28 0 0.36 0.12l1.6 2.8c0.040 0.080 0.040 0.16 0.040 0.24-0.040 0.080-0.080 0.16-0.2 0.16l-11.24 4.040c-0.040 0-0.080 0-0.080 0zM17.56 18.28l1.28 2.28 10.64-3.8-1.28-2.28-10.64 3.8z"></path>
<path fill="#fff" style="fill: var(--color3, #fff)" d="M19.52 7.8v8.12h-4.8v-8.12h-3.2l5.6-5.72 5.56 5.72h-3.16z"></path>
<path fill="#ffbc57" style="fill: var(--color2, #ffbc57)" d="M17.32 15.6h-2.32v-7.8c0-0.16-0.12-0.32-0.32-0.32h-2.48l4.92-4.96 1.28 1.32c0.040 0.040 0.080 0.040 0.12 0l0.28-0.32c0.040-0.040 0.040-0.080 0-0.12l-1.48-1.52c-0.040-0.040-0.12-0.080-0.2-0.080s-0.16 0.040-0.2 0.080l-5.64 5.72c-0.080 0.080-0.12 0.2-0.080 0.32s0.16 0.2 0.28 0.2h2.92v7.8c0 0.16 0.12 0.32 0.32 0.32h2.6c0.040 0 0.080-0.040 0.080-0.080v-0.44c0-0.080-0.040-0.12-0.080-0.12z"></path>
<path fill="#2b2929" style="fill: var(--color4, #2b2929)" d="M19.2 3.96l-0.32 0.32c-0.040 0.040-0.040 0.080 0 0.12l3.080 3.12h-2.48c-0.16 0-0.32 0.12-0.32 0.32v7.76h-1.12c-0.040 0-0.040 0.040-0.040 0.080v0.44c0 0.040 0.040 0.080 0.080 0.080h1.44c0.16 0 0.32-0.12 0.32-0.32v-7.76h2.88c0.12 0 0.24-0.080 0.28-0.2s0.040-0.24-0.080-0.32l-3.56-3.64c-0.040-0.040-0.12-0.040-0.16 0z"></path>
</symbol>
<symbol id="icon-avatar-icon" viewBox="0 0 32 32">
<path fill="#fff" style="fill: var(--color3, #fff); stroke: var(--color2, #ffbc57)" stroke="#ffbc57" stroke-linejoin="miter" stroke-linecap="butt" stroke-miterlimit="4" stroke-width="0.64" d="M31.68 16c0 8.66-7.020 15.68-15.68 15.68s-15.68-7.020-15.68-15.68c0-8.66 7.020-15.68 15.68-15.68s15.68 7.020 15.68 15.68z"></path>
<path fill="#535353" style="fill: var(--color5, #535353)" d="M18.12 16.406c0.56-0.441 0.969-1.045 1.17-1.729s0.183-1.414-0.050-2.087-0.671-1.258-1.251-1.671c-0.581-0.413-1.276-0.636-1.989-0.636s-1.408 0.222-1.989 0.636c-0.581 0.413-1.018 0.998-1.251 1.671s-0.251 1.403-0.050 2.087c0.201 0.684 0.61 1.288 1.17 1.729-0.96 0.385-1.798 1.022-2.424 1.846s-1.017 1.801-1.131 2.829c-0.008 0.075-0.002 0.151 0.019 0.223s0.056 0.14 0.104 0.199c0.095 0.119 0.234 0.195 0.386 0.212s0.304-0.028 0.422-0.123c0.119-0.095 0.195-0.234 0.212-0.386 0.126-1.117 0.658-2.149 1.496-2.898s1.923-1.163 3.047-1.163c1.124 0 2.209 0.414 3.047 1.163s1.371 1.781 1.496 2.898c0.016 0.14 0.083 0.27 0.188 0.364s0.242 0.145 0.383 0.145h0.063c0.15-0.017 0.287-0.093 0.381-0.211s0.138-0.268 0.122-0.418c-0.115-1.031-0.507-2.011-1.137-2.835s-1.471-1.462-2.435-1.845v0zM16 16c-0.452 0-0.894-0.134-1.27-0.385s-0.669-0.608-0.842-1.026c-0.173-0.418-0.218-0.877-0.13-1.321s0.306-0.851 0.626-1.17c0.32-0.32 0.727-0.537 1.17-0.626s0.903-0.043 1.321 0.13 0.775 0.466 1.026 0.842c0.251 0.376 0.385 0.818 0.385 1.27 0 0.606-0.241 1.188-0.669 1.616s-1.010 0.669-1.616 0.669z"></path>
</symbol>
<symbol id="icon-basket-icon" viewBox="0 0 32 32">
<path fill="#f8f8f8" style="fill: var(--color6, #f8f8f8)" d="M32 16c0 8.837-7.163 16-16 16s-16-7.163-16-16c0-8.837 7.163-16 16-16s16 7.163 16 16z"></path>
<path fill="#b1b1b1" style="fill: var(--color1, #b1b1b1)" d="M17.918 21.13c0.213 0 0.417-0.084 0.568-0.234s0.235-0.352 0.235-0.564v-1.595c0-0.212-0.085-0.414-0.235-0.564s-0.355-0.234-0.568-0.234-0.417 0.084-0.568 0.234c-0.151 0.149-0.235 0.352-0.235 0.564v1.595c0 0.211 0.085 0.414 0.235 0.564s0.355 0.234 0.568 0.234zM14.707 21.13c0.213 0 0.417-0.084 0.568-0.234s0.235-0.352 0.235-0.564v-1.595c0-0.212-0.085-0.414-0.235-0.564s-0.355-0.234-0.568-0.234c-0.213 0-0.417 0.084-0.568 0.234s-0.235 0.352-0.235 0.564v1.595c0 0.211 0.085 0.414 0.235 0.564s0.355 0.234 0.568 0.234zM21.932 11.562h-1.108l-1.389-2.751c-0.042-0.101-0.105-0.193-0.185-0.269s-0.174-0.135-0.278-0.173c-0.104-0.038-0.214-0.054-0.324-0.048s-0.218 0.035-0.316 0.084c-0.099 0.050-0.186 0.119-0.256 0.203s-0.122 0.182-0.153 0.288c-0.031 0.105-0.039 0.216-0.024 0.325s0.051 0.213 0.108 0.307l1.020 2.033h-5.428l1.020-2.033c0.078-0.186 0.082-0.394 0.012-0.583s-0.21-0.344-0.391-0.435c-0.181-0.091-0.39-0.11-0.585-0.055s-0.361 0.183-0.466 0.355l-1.389 2.751h-1.108c-0.568 0.008-1.114 0.216-1.542 0.585s-0.712 0.877-0.8 1.434 0.024 1.127 0.318 1.609c0.293 0.482 0.749 0.847 1.286 1.028l0.594 5.948c0.060 0.592 0.34 1.141 0.785 1.539s1.024 0.617 1.623 0.614h6.728c0.599 0.003 1.178-0.216 1.623-0.614s0.725-0.947 0.785-1.539l0.594-5.948c0.538-0.182 0.995-0.547 1.288-1.031s0.405-1.056 0.314-1.613c-0.090-0.558-0.377-1.066-0.808-1.434s-0.98-0.573-1.549-0.578v0zM20.479 22.008c-0.020 0.197-0.113 0.38-0.262 0.513s-0.341 0.206-0.541 0.205h-6.728c-0.2 0.001-0.393-0.072-0.541-0.205s-0.242-0.316-0.262-0.513l-0.57-5.661h9.474l-0.57 5.661zM21.932 14.751h-11.24c-0.213 0-0.417-0.084-0.568-0.234s-0.235-0.352-0.235-0.564 0.085-0.414 0.235-0.564c0.151-0.15 0.355-0.234 0.568-0.234h11.24c0.213 0 0.417 0.084 0.568 0.234s0.235 0.352 0.235 0.564-0.085 0.414-0.235 0.564c-0.151 0.149-0.355 0.234-0.568 0.234z"></path>
</symbol>
<symbol id="icon-basket" viewBox="0 0 32 32">
<path fill="none" stroke="#ffbc57" style="stroke: var(--color2, #ffbc57)" stroke-linejoin="miter" stroke-linecap="butt" stroke-miterlimit="4" stroke-width="1.28" d="M31.36 16c0 8.483-6.877 15.36-15.36 15.36s-15.36-6.877-15.36-15.36c0-8.483 6.877-15.36 15.36-15.36s15.36 6.877 15.36 15.36z"></path>
<path fill="#535353" style="fill: var(--color5, #535353)" d="M17.918 21.13c0.213 0 0.417-0.084 0.568-0.234s0.235-0.352 0.235-0.564v-1.595c0-0.212-0.085-0.414-0.235-0.564s-0.355-0.234-0.568-0.234-0.417 0.084-0.568 0.234c-0.151 0.149-0.235 0.352-0.235 0.564v1.595c0 0.211 0.085 0.414 0.235 0.564s0.355 0.234 0.568 0.234zM14.707 21.13c0.213 0 0.417-0.084 0.568-0.234s0.235-0.352 0.235-0.564v-1.595c0-0.212-0.085-0.414-0.235-0.564s-0.355-0.234-0.568-0.234c-0.213 0-0.417 0.084-0.568 0.234s-0.235 0.352-0.235 0.564v1.595c0 0.211 0.085 0.414 0.235 0.564s0.355 0.234 0.568 0.234zM21.932 11.562h-1.108l-1.389-2.751c-0.042-0.101-0.105-0.193-0.185-0.269s-0.174-0.135-0.278-0.173c-0.104-0.038-0.214-0.054-0.324-0.048s-0.218 0.035-0.316 0.084c-0.099 0.050-0.186 0.119-0.256 0.203s-0.122 0.182-0.153 0.288c-0.031 0.105-0.039 0.216-0.024 0.325s0.051 0.213 0.108 0.307l1.020 2.033h-5.428l1.020-2.033c0.078-0.186 0.082-0.394 0.012-0.583s-0.21-0.344-0.391-0.435c-0.181-0.091-0.39-0.11-0.585-0.055s-0.361 0.183-0.466 0.355l-1.389 2.751h-1.108c-0.568 0.008-1.114 0.216-1.542 0.585s-0.712 0.877-0.8 1.434 0.024 1.127 0.318 1.609c0.293 0.482 0.749 0.847 1.286 1.028l0.594 5.948c0.060 0.592 0.34 1.141 0.785 1.539s1.024 0.617 1.623 0.614h6.728c0.599 0.003 1.178-0.216 1.623-0.614s0.725-0.947 0.785-1.539l0.594-5.948c0.538-0.182 0.995-0.547 1.288-1.031s0.405-1.056 0.314-1.613c-0.090-0.558-0.377-1.066-0.808-1.434s-0.98-0.573-1.549-0.578zM20.479 22.008c-0.020 0.197-0.113 0.38-0.262 0.513s-0.341 0.206-0.541 0.205h-6.728c-0.2 0.001-0.393-0.072-0.541-0.205s-0.242-0.316-0.262-0.513l-0.57-5.661h9.474l-0.57 5.661zM21.932 14.751h-11.24c-0.213 0-0.417-0.084-0.568-0.234s-0.235-0.352-0.235-0.564 0.085-0.414 0.235-0.564c0.151-0.15 0.355-0.234 0.568-0.234h11.24c0.213 0 0.417 0.084 0.568 0.234s0.235 0.352 0.235 0.564-0.085 0.414-0.235 0.564c-0.151 0.149-0.355 0.234-0.568 0.234z"></path>
</symbol>
<symbol id="icon-calendar-icon" viewBox="0 0 32 32">
<path fill="none" opacity="0.2" stroke="#b1b1b1" style="stroke: var(--color1, #b1b1b1)" stroke-linejoin="miter" stroke-linecap="butt" stroke-miterlimit="4" stroke-width="1.28" d="M31.36 16c0 8.483-6.877 15.36-15.36 15.36s-15.36-6.877-15.36-15.36c0-8.483 6.877-15.36 15.36-15.36s15.36 6.877 15.36 15.36z"></path>
<path fill="#b1b1b1" style="fill: var(--color1, #b1b1b1)" d="M20.928 10.368h-1.408v-0.704c0-0.187-0.074-0.366-0.206-0.498s-0.311-0.206-0.498-0.206c-0.187 0-0.366 0.074-0.498 0.206s-0.206 0.311-0.206 0.498v0.704h-4.224v-0.704c0-0.187-0.074-0.366-0.206-0.498s-0.311-0.206-0.498-0.206c-0.187 0-0.366 0.074-0.498 0.206s-0.206 0.311-0.206 0.498v0.704h-1.408c-0.56 0-1.097 0.223-1.493 0.619s-0.619 0.933-0.619 1.493v8.448c0 0.56 0.223 1.097 0.619 1.493s0.933 0.619 1.493 0.619h9.856c0.56 0 1.097-0.223 1.493-0.619s0.619-0.933 0.619-1.493v-8.448c0-0.56-0.223-1.097-0.619-1.493s-0.933-0.619-1.493-0.619zM21.632 20.928c0 0.187-0.074 0.366-0.206 0.498s-0.311 0.206-0.498 0.206h-9.856c-0.187 0-0.366-0.074-0.498-0.206s-0.206-0.311-0.206-0.498v-4.928h11.264v4.928zM21.632 14.592h-11.264v-2.112c0-0.187 0.074-0.366 0.206-0.498s0.311-0.206 0.498-0.206h1.408v0.704c0 0.187 0.074 0.366 0.206 0.498s0.311 0.206 0.498 0.206c0.187 0 0.366-0.074 0.498-0.206s0.206-0.311 0.206-0.498v-0.704h4.224v0.704c0 0.187 0.074 0.366 0.206 0.498s0.311 0.206 0.498 0.206c0.187 0 0.366-0.074 0.498-0.206s0.206-0.311 0.206-0.498v-0.704h1.408c0.187 0 0.366 0.074 0.498 0.206s0.206 0.311 0.206 0.498v2.112z"></path>
</symbol>
<symbol id="icon-credit" viewBox="0 0 32 32">
<path fill="#ffbc57" style="fill: var(--color2, #ffbc57)" d="M16 2.667c-7.333 0-13.333 6-13.333 13.333s6 13.333 13.333 13.333c7.333 0 13.333-6 13.333-13.333s-6-13.333-13.333-13.333zM16 5.333c5.333 0 9.867 4 10.533 9.333h-10.533v-9.333zM21.333 25.2l-4.533-7.867h9.867c-0.533 3.333-2.4 6.267-5.333 7.867z"></path>
</symbol>
<symbol id="icon-delivery-icon" viewBox="0 0 32 32">
<path fill="#ffbc57" style="fill: var(--color2, #ffbc57)" d="M26.469 16.321c3.055 0 5.531-2.476 5.531-5.531s-2.476-5.531-5.531-5.531c-3.055 0-5.531 2.476-5.531 5.531s2.476 5.531 5.531 5.531z"></path>
<path fill="#ffbc57" style="fill: var(--color2, #ffbc57)" d="M13.709 9.881c2.618 0 4.741-2.123 4.741-4.741s-2.123-4.741-4.741-4.741c-2.618 0-4.741 2.123-4.741 4.741s2.123 4.741 4.741 4.741z"></path>
<path fill="#ffbc57" style="fill: var(--color2, #ffbc57)" d="M7.901 31.412c4.364 0 7.901-3.538 7.901-7.901s-3.538-7.901-7.901-7.901c-4.364 0-7.901 3.538-7.901 7.901s3.538 7.901 7.901 7.901z"></path>
<path fill="#fff" style="fill: var(--color3, #fff)" d="M27.615 16.652l-2.054-0.869h-5.531c-0.869 0-1.58-0.711-1.58-1.58v-5.926h-2.765v15.802h10.983c0.316 0 0.632-0.119 0.83-0.356l0.474-0.474c0.237-0.237 0.356-0.514 0.356-0.83v-4.701c0-0.474-0.277-0.909-0.711-1.067z"></path>
<path fill="#fff" style="fill: var(--color3, #fff)" d="M25.244 16.652l-2.054-0.869h-3.161c-0.869 0-1.58-0.711-1.58-1.58v-5.926h-2.765v15.802h8.612c0.316 0 0.632-0.119 0.83-0.356l0.474-0.474c0.237-0.237 0.356-0.514 0.356-0.83v-4.701c0-0.474-0.277-0.909-0.711-1.067z"></path>
<path fill="#fff" style="fill: var(--color3, #fff)" d="M24.375 18.943l1.185 2.37h2.765v-2.37h-3.951z"></path>
<path fill="#fff" style="fill: var(--color3, #fff)" d="M24.375 18.943l0.79 1.58h1.58c0.237 0 0.395-0.158 0.395-0.395v-1.185h-2.765z"></path>
<path fill="#2b2929" style="fill: var(--color4, #2b2929)" d="M28.326 21.59h-2.765c-0.119 0-0.198-0.079-0.277-0.158l-1.185-2.37c-0.039-0.079-0.039-0.198 0-0.277s0.158-0.158 0.237-0.158h3.951c0.158 0 0.316 0.119 0.316 0.316v2.37c0.040 0.158-0.079 0.277-0.277 0.277zM25.758 20.998h2.291v-1.778h-3.161l0.869 1.778z"></path>
<path fill="#fff" style="fill: var(--color3, #fff)" d="M20.030 15.783h5.531l-3.042-6.202c-0.395-0.79-1.225-1.304-2.133-1.304h-1.936v5.926c0 0.869 0.711 1.58 1.58 1.58z"></path>
<path fill="#fff" style="fill: var(--color3, #fff)" d="M22.519 9.58c-0.395-0.79-1.225-1.304-2.133-1.304h-1.936c0.869 0 1.699 0.514 2.094 1.304l3.042 6.202h1.975l-3.042-6.202z"></path>
<path fill="#2b2929" style="fill: var(--color4, #2b2929)" d="M25.561 16.059h-5.531c-1.027 0-1.896-0.83-1.896-1.857v-5.926c0-0.158 0.119-0.316 0.316-0.316h1.936c1.027 0 1.936 0.553 2.41 1.501l3.042 6.202c0.040 0.079 0.040 0.198 0 0.277-0.079 0.079-0.158 0.119-0.277 0.119zM18.765 8.553v5.649c0 0.711 0.593 1.264 1.304 1.264h5.057l-2.844-5.768c-0.356-0.711-1.067-1.146-1.857-1.146h-1.659z"></path>
<path fill="#fff" style="fill: var(--color3, #fff)" d="M3.832 5.116c-0.435 0-0.79 0.356-0.79 0.79v17.383c0 0.435 0.356 0.79 0.79 0.79h11.852v-18.173c0-0.435-0.356-0.79-0.79-0.79h-11.062z"></path>
<path fill="#fff" style="fill: var(--color3, #fff)" d="M3.832 5.116c-0.435 0-0.79 0.356-0.79 0.79v16.198h9.482c0.435 0 0.79-0.356 0.79-0.79v-16.198h-9.481z"></path>
<path fill="#2b2929" style="fill: var(--color4, #2b2929)" d="M15.684 24.356h-11.852c-0.593 0-1.106-0.474-1.106-1.106v-17.383c0.039-0.593 0.514-1.067 1.106-1.067h11.062c0.593 0 1.106 0.474 1.106 1.106v18.173c0 0.158-0.119 0.277-0.316 0.277zM3.832 5.393c-0.277 0-0.514 0.237-0.514 0.514v17.383c0 0.277 0.237 0.514 0.514 0.514h11.575v-17.896c0-0.277-0.237-0.514-0.514-0.514h-11.062z"></path>
<path fill="#2b2929" style="fill: var(--color4, #2b2929)" d="M26.667 24.355h-10.983c-0.158 0-0.316-0.119-0.316-0.316v-15.802c0-0.158 0.119-0.316 0.316-0.316h2.765c0.158 0 0.316 0.119 0.316 0.316v5.926c0 0.711 0.593 1.264 1.304 1.264h5.531c0.040 0 0.079 0 0.119 0.039l2.054 0.869c0.553 0.237 0.909 0.751 0.909 1.343v4.662c0 0.395-0.158 0.751-0.435 1.067l-0.474 0.474c-0.356 0.316-0.711 0.474-1.106 0.474zM16 23.763h10.667c0.237 0 0.474-0.079 0.632-0.277l0.474-0.474c0.158-0.158 0.277-0.395 0.277-0.632v-4.662c0-0.356-0.198-0.672-0.553-0.83l-1.975-0.869h-5.491c-1.027 0-1.896-0.83-1.896-1.857v-5.61h-2.173v15.21h0.039z"></path>
<path fill="#fff" style="fill: var(--color3, #fff)" d="M9.363 26.449c1.309 0 2.37-1.061 2.37-2.37s-1.061-2.37-2.37-2.37c-1.309 0-2.37 1.061-2.37 2.37s1.061 2.37 2.37 2.37z"></path>
<path fill="#fff" style="fill: var(--color3, #fff)" d="M10.627 22.025c0.237 0.356 0.356 0.79 0.356 1.225 0 1.304-1.067 2.37-2.37 2.37-0.435 0-0.869-0.119-1.225-0.356 0.435 0.672 1.146 1.146 2.015 1.146 1.304 0 2.37-1.067 2.37-2.37-0.040-0.83-0.474-1.58-1.146-2.015z"></path>
<path fill="#2b2929" style="fill: var(--color4, #2b2929)" d="M9.363 26.726c-1.462 0-2.686-1.185-2.686-2.686 0-1.462 1.185-2.686 2.686-2.686s2.686 1.185 2.686 2.686-1.185 2.686-2.686 2.686zM9.363 21.985c-1.146 0-2.094 0.948-2.094 2.094s0.948 2.094 2.094 2.094c1.146 0 2.094-0.948 2.094-2.094s-0.948-2.094-2.094-2.094z"></path>
<path fill="#fff" style="fill: var(--color3, #fff)" d="M9.363 24.869c0.436 0 0.79-0.354 0.79-0.79s-0.354-0.79-0.79-0.79c-0.436 0-0.79 0.354-0.79 0.79s0.354 0.79 0.79 0.79z"></path>
<path fill="#2b2929" style="fill: var(--color4, #2b2929)" d="M9.363 25.146c-0.593 0-1.106-0.474-1.106-1.106 0-0.593 0.474-1.106 1.106-1.106s1.106 0.474 1.106 1.106c0 0.632-0.474 1.106-1.106 1.106zM9.363 23.565c-0.277 0-0.514 0.237-0.514 0.514s0.237 0.514 0.514 0.514c0.277 0 0.514-0.237 0.514-0.514s-0.237-0.514-0.514-0.514z"></path>
<path fill="#fff" style="fill: var(--color3, #fff)" d="M22.005 26.449c1.309 0 2.37-1.061 2.37-2.37s-1.061-2.37-2.37-2.37c-1.309 0-2.37 1.061-2.37 2.37s1.061 2.37 2.37 2.37z"></path>
<path fill="#fff" style="fill: var(--color3, #fff)" d="M23.269 22.025c0.237 0.356 0.356 0.79 0.356 1.225 0 1.304-1.067 2.37-2.37 2.37-0.435 0-0.869-0.119-1.225-0.356 0.435 0.672 1.146 1.146 2.015 1.146 1.304 0 2.37-1.067 2.37-2.37-0.040-0.83-0.474-1.58-1.146-2.015z"></path>
<path fill="#2b2929" style="fill: var(--color4, #2b2929)" d="M22.005 26.726c-1.462 0-2.686-1.185-2.686-2.686 0-1.462 1.185-2.686 2.686-2.686 1.462 0 2.686 1.185 2.686 2.686s-1.185 2.686-2.686 2.686zM22.005 21.985c-1.146 0-2.094 0.948-2.094 2.094s0.948 2.094 2.094 2.094c1.146 0 2.094-0.948 2.094-2.094s-0.948-2.094-2.094-2.094z"></path>
<path fill="#fff" style="fill: var(--color3, #fff)" d="M22.005 24.869c0.436 0 0.79-0.354 0.79-0.79s-0.354-0.79-0.79-0.79c-0.436 0-0.79 0.354-0.79 0.79s0.354 0.79 0.79 0.79z"></path>
<path fill="#2b2929" style="fill: var(--color4, #2b2929)" d="M22.005 25.146c-0.593 0-1.106-0.474-1.106-1.106 0-0.593 0.474-1.106 1.106-1.106 0.593 0 1.106 0.474 1.106 1.106s-0.474 1.106-1.106 1.106zM22.005 23.565c-0.277 0-0.514 0.237-0.514 0.514s0.237 0.514 0.514 0.514c0.277 0 0.514-0.237 0.514-0.514s-0.237-0.514-0.514-0.514z"></path>
<path fill="#2b2929" style="fill: var(--color4, #2b2929)" d="M20.425 17.639h-1.58c-0.158 0-0.316-0.119-0.316-0.316 0-0.158 0.119-0.316 0.316-0.316h1.58c0.158 0 0.316 0.119 0.316 0.316s-0.119 0.316-0.316 0.316z"></path>
<path fill="#ffbc57" style="fill: var(--color2, #ffbc57)" d="M13.709 15.269h-8.691c-0.158 0-0.316-0.119-0.316-0.316 0-0.158 0.118-0.316 0.316-0.316h8.691c0.158 0 0.316 0.119 0.316 0.316s-0.119 0.316-0.316 0.316z"></path>
<path fill="#ffbc57" style="fill: var(--color2, #ffbc57)" d="M13.709 17.639h-8.691c-0.158 0-0.316-0.119-0.316-0.316 0-0.158 0.118-0.316 0.316-0.316h8.691c0.158 0 0.316 0.119 0.316 0.316s-0.119 0.316-0.316 0.316z"></path>
<path fill="#ffbc57" style="fill: var(--color2, #ffbc57)" d="M13.709 20.010h-8.691c-0.158 0-0.316-0.119-0.316-0.316 0-0.158 0.118-0.316 0.316-0.316h8.691c0.158 0 0.316 0.119 0.316 0.316s-0.119 0.316-0.316 0.316z"></path>
<path fill="#ffbc57" style="fill: var(--color2, #ffbc57)" d="M13.709 12.899h-8.691c-0.158 0-0.316-0.119-0.316-0.316 0-0.158 0.118-0.316 0.316-0.316h8.691c0.158 0 0.316 0.119 0.316 0.316s-0.119 0.316-0.316 0.316z"></path>
<path fill="#2b2929" style="fill: var(--color4, #2b2929)" d="M13.709 10.528h-8.691c-0.158 0-0.316-0.119-0.316-0.316 0-0.158 0.118-0.316 0.316-0.316h8.691c0.158 0 0.316 0.119 0.316 0.316s-0.119 0.316-0.316 0.316z"></path>
<path fill="#2b2929" style="fill: var(--color4, #2b2929)" d="M13.709 8.158h-8.691c-0.158 0-0.316-0.119-0.316-0.316 0-0.158 0.118-0.316 0.316-0.316h8.691c0.158 0 0.316 0.118 0.316 0.316s-0.119 0.316-0.316 0.316z"></path>
</symbol>
<symbol id="icon-discount-icon" viewBox="0 0 32 32">
<path fill="#ffbc57" style="fill: var(--color2, #ffbc57)" d="M5.586 29.527c3.085 0 5.586-2.501 5.586-5.586s-2.501-5.586-5.586-5.586c-3.085 0-5.586 2.501-5.586 5.586s2.501 5.586 5.586 5.586z"></path>
<path fill="#ffbc57" style="fill: var(--color2, #ffbc57)" d="M14.484 9.976c2.644 0 4.788-2.144 4.788-4.788s-2.144-4.788-4.788-4.788c-2.644 0-4.788 2.144-4.788 4.788s2.144 4.788 4.788 4.788z"></path>
<path fill="#ffbc57" style="fill: var(--color2, #ffbc57)" d="M24.020 31.522c4.407 0 7.98-3.573 7.98-7.98s-3.573-7.98-7.98-7.98c-4.407 0-7.98 3.573-7.98 7.98s3.573 7.98 7.98 7.98z"></path>
<path fill="#fff" style="fill: var(--color3, #fff)" d="M16.479 29.487c7.052 0 12.768-5.716 12.768-12.768s-5.716-12.768-12.768-12.768c-7.052 0-12.768 5.716-12.768 12.768s5.716 12.768 12.768 12.768z"></path>
<path fill="#2b2929" style="fill: var(--color4, #2b2929)" d="M16.479 29.767c-7.222 0-13.087-5.865-13.087-13.087s5.865-13.047 13.087-13.047c7.222 0 13.047 5.865 13.047 13.087s-5.865 13.047-13.047 13.047zM16.479 4.231c-6.903 0-12.489 5.586-12.489 12.489 0 6.863 5.586 12.489 12.489 12.489 6.863 0 12.489-5.586 12.489-12.489-0.040-6.903-5.626-12.489-12.489-12.489z"></path>
<path fill="#fff" style="fill: var(--color3, #fff)" d="M16.239 11.931l-2.514-1.676c-1.636-1.077-3.791-0.838-5.107 0.599l-2.115 2.274c-0.399 0.439-0.599 0.997-0.519 1.596l1.596 12.569c0.080 0.638 0.678 1.117 1.317 1.037l8.698-1.077c0.638-0.080 1.117-0.678 1.037-1.317l-1.556-12.569c-0.040-0.599-0.359-1.117-0.838-1.436z"></path>
<path fill="#2b2929" style="fill: var(--color4, #2b2929)" d="M8.778 28.61c-0.319 0-0.638-0.12-0.918-0.319-0.319-0.239-0.519-0.599-0.559-0.998l-1.556-12.529c-0.080-0.678 0.12-1.357 0.598-1.835l2.115-2.274c1.436-1.556 3.751-1.835 5.506-0.638l2.514 1.676c0.559 0.359 0.918 0.958 0.997 1.636l1.556 12.569c0.040 0.399-0.040 0.798-0.319 1.117-0.239 0.319-0.598 0.519-0.998 0.559l-8.698 1.077c-0.12-0.040-0.199-0.040-0.239-0.040zM11.531 9.856c-0.998 0-1.955 0.399-2.673 1.197l-2.115 2.274c-0.319 0.359-0.479 0.878-0.439 1.357l1.556 12.529c0.040 0.239 0.16 0.439 0.359 0.599s0.439 0.199 0.678 0.199l8.698-1.077c0.239-0.040 0.439-0.16 0.599-0.359s0.199-0.439 0.199-0.678l-1.556-12.569c-0.080-0.479-0.319-0.918-0.718-1.197l-2.554-1.636c-0.599-0.399-1.317-0.638-2.035-0.638z"></path>
<path fill="#fff" style="fill: var(--color3, #fff)" d="M18.434 8.021l-2.873-0.918c-1.835-0.598-3.87 0.239-4.748 1.995l-1.396 2.753c-0.239 0.519-0.239 1.157 0 1.676l4.948 11.651c0.279 0.598 0.958 0.878 1.556 0.638l8.1-3.471c0.599-0.239 0.878-0.958 0.638-1.556l-4.988-11.651c-0.239-0.519-0.678-0.918-1.237-1.117z"></path>
<path fill="#2b2929" style="fill: var(--color4, #2b2929)" d="M15.441 26.176c-0.598 0-1.117-0.359-1.396-0.918l-4.908-11.611c-0.279-0.638-0.239-1.317 0.040-1.915l1.397-2.753c0.958-1.875 3.112-2.793 5.107-2.155l2.873 0.918c0.638 0.199 1.157 0.678 1.397 1.277l4.948 11.651c0.319 0.758-0.040 1.636-0.798 1.955l-8.060 3.431c-0.2 0.080-0.399 0.12-0.599 0.12zM14.364 7.223c-1.357 0-2.594 0.758-3.232 2.035l-1.397 2.753c-0.239 0.439-0.239 0.958-0.040 1.436l4.948 11.611c0.2 0.439 0.718 0.678 1.197 0.479l8.060-3.431c0.439-0.2 0.678-0.718 0.479-1.197l-4.988-11.651c-0.199-0.439-0.559-0.798-1.037-0.958l-2.873-0.918c-0.359-0.12-0.758-0.16-1.117-0.16z"></path>
<path fill="#2b2929" style="fill: var(--color4, #2b2929)" d="M14.324 12.969c-0.279 0-0.519-0.040-0.798-0.16-0.519-0.199-0.918-0.598-1.157-1.117s-0.239-1.077 0-1.596c0.199-0.519 0.598-0.918 1.117-1.157s1.077-0.239 1.596 0c0.519 0.2 0.918 0.599 1.157 1.117s0.239 1.077 0 1.596c-0.2 0.519-0.599 0.918-1.117 1.157-0.239 0.080-0.519 0.16-0.798 0.16zM14.324 9.378c-0.199 0-0.399 0.040-0.598 0.12-0.359 0.16-0.638 0.439-0.798 0.798s-0.16 0.758 0 1.157c0.16 0.359 0.439 0.638 0.798 0.798s0.758 0.16 1.157 0c0.359-0.16 0.638-0.439 0.798-0.798s0.16-0.758 0-1.157c-0.16-0.359-0.439-0.638-0.838-0.798-0.12-0.080-0.319-0.12-0.519-0.12z"></path>
<path fill="#2b2929" style="fill: var(--color4, #2b2929)" d="M14.963 11.373c-0.479 0-0.798-0.239-0.958-0.439-0.359-0.439-0.399-1.117-0.16-1.955 0.040-0.16 0.2-0.239 0.359-0.2s0.239 0.2 0.199 0.359c-0.199 0.598-0.16 1.157 0.040 1.396 0.12 0.16 0.319 0.2 0.559 0.2 0.958-0.080 2.314-1.317 2.953-2.713 0.479-0.997 0.399-1.676 0.2-1.955-0.12-0.16-0.319-0.239-0.559-0.239-0.599 0.040-1.397 0.559-2.075 1.357-0.12 0.12-0.279 0.16-0.439 0.040-0.12-0.12-0.16-0.279-0.040-0.439 0.798-0.918 1.716-1.516 2.514-1.596 0.479-0.040 0.878 0.12 1.117 0.479 0.399 0.559 0.319 1.516-0.16 2.554-0.758 1.636-2.274 2.993-3.471 3.072 0 0.080-0.040 0.080-0.080 0.080z"></path>
<path fill="#ffbc57" style="fill: var(--color2, #ffbc57)" d="M15.88 23.422c-0.040 0-0.080 0-0.12-0.040-0.16-0.080-0.239-0.239-0.16-0.399l3.591-8.898c0.080-0.16 0.239-0.239 0.399-0.16s0.239 0.239 0.16 0.399l-3.591 8.898c-0.040 0.12-0.16 0.199-0.279 0.199z"></path>
<path fill="#fff" style="fill: var(--color3, #fff)" d="M15.92 17.078c0.279 0.599-0.040 1.317-0.638 1.596s-1.317-0.040-1.596-0.638c-0.279-0.598 0.040-1.317 0.638-1.596 0.638-0.279 1.357 0 1.596 0.638z"></path>
<path fill="#ffbc57" style="fill: var(--color2, #ffbc57)" d="M14.803 19.033c-0.2 0-0.399-0.040-0.559-0.12-0.359-0.16-0.678-0.439-0.838-0.798-0.319-0.758 0.040-1.636 0.798-1.995 0.758-0.319 1.636 0.040 1.995 0.798 0.16 0.359 0.16 0.798 0 1.157s-0.439 0.678-0.798 0.838c-0.199 0.080-0.399 0.12-0.598 0.12zM14.803 16.639c-0.12 0-0.239 0.040-0.359 0.080-0.479 0.199-0.678 0.718-0.479 1.197 0.080 0.239 0.279 0.399 0.479 0.479 0.239 0.080 0.479 0.080 0.678 0 0.239-0.080 0.399-0.279 0.479-0.479 0.080-0.239 0.080-0.479 0-0.678-0.12-0.399-0.439-0.598-0.798-0.598z"></path>
<path fill="#fff" style="fill: var(--color3, #fff)" d="M21.626 19.353c0.279 0.599-0.040 1.317-0.638 1.596s-1.317-0.040-1.596-0.638c-0.279-0.598 0.040-1.317 0.638-1.596 0.638-0.239 1.357 0.040 1.596 0.638z"></path>
<path fill="#ffbc57" style="fill: var(--color2, #ffbc57)" d="M20.509 21.348c-0.599 0-1.157-0.359-1.397-0.918-0.319-0.758 0.040-1.636 0.798-1.995 0.758-0.319 1.636 0.040 1.995 0.798 0.319 0.758-0.040 1.636-0.798 1.995-0.199 0.080-0.399 0.12-0.598 0.12zM20.509 18.914c-0.12 0-0.239 0.040-0.359 0.080-0.479 0.199-0.678 0.718-0.479 1.197s0.718 0.678 1.197 0.479c0.479-0.199 0.678-0.718 0.479-1.197-0.12-0.319-0.479-0.559-0.838-0.559z"></path>
<path fill="#2b2929" style="fill: var(--color4, #2b2929)" d="M8.938 21.986c-0.16 0-0.279-0.12-0.279-0.279l-0.718-5.865c-0.040-0.16 0.080-0.319 0.279-0.319 0.16-0.040 0.319 0.080 0.319 0.279l0.718 5.865c0 0.16-0.12 0.279-0.319 0.319 0.040 0 0 0 0 0z"></path>
<path fill="#2b2929" style="fill: var(--color4, #2b2929)" d="M9.377 25.378c-0.16 0-0.279-0.12-0.279-0.279l-0.199-1.596c-0.040-0.16 0.080-0.319 0.279-0.319 0.16 0 0.319 0.080 0.319 0.279l0.2 1.596c-0.040 0.12-0.12 0.279-0.319 0.319z"></path>
</symbol>
<symbol id="icon-facebook-icon" viewBox="0 0 32 32">
<path fill="#1778d0" style="fill: var(--color7, #1778d0)" d="M16 0c-8.832 0-16 7.168-16 16s7.168 16 16 16c8.832 0 16-7.168 16-16s-7.168-16-16-16zM20.352 9.728h-2.176c-0.384 0-0.896 0.512-0.896 0.768v2.304h3.072c-0.128 1.664-0.384 3.328-0.384 3.328h-2.688v9.728h-4.096v-9.728h-1.92v-3.328h1.92v-2.688c0-0.512-0.128-3.712 4.096-3.712h2.944v3.328h0.128z"></path>
</symbol>
<symbol id="icon-favicon" viewBox="0 0 32 32">
<path fill="#fff" style="fill: var(--color3, #fff)" d="M32 16c0 8.837-7.163 16-16 16s-16-7.163-16-16c0-8.837 7.163-16 16-16s16 7.163 16 16z"></path>
<path fill="#ffbc57" style="fill: var(--color2, #ffbc57)" d="M6.806 14.048v8.154c0 0.222-0.149 0.371-0.372 0.371h-1.49c-0.223 0-0.372-0.148-0.372-0.371v-8.154c0-0.222 0.149-0.371 0.372-0.371h1.49c0.223 0 0.372 0.185 0.372 0.371zM27.056 13.677h-1.49c-0.223 0-0.372 0.148-0.372 0.371v8.154c0 0.222 0.149 0.371 0.372 0.371h1.49c0.223 0 0.372-0.148 0.372-0.371v-8.154c0-0.185-0.149-0.371-0.372-0.371z"></path>
<path fill="#ffbc57" style="fill: var(--color2, #ffbc57)" d="M24.449 16.272v2.224c0 0.222-0.149 0.371-0.372 0.371h-16.153c-0.223 0-0.372-0.148-0.372-0.371v-2.224c0-0.222 0.149-0.371 0.372-0.371h16.153c0.223 0 0.372 0.148 0.372 0.371zM7.923 15.16h4.391c0.223 0 0.372-0.148 0.372-0.371v-4.819c0-0.222-0.149-0.371-0.372-0.371h-4.391c-0.223 0-0.372 0.148-0.372 0.371v4.819c0 0.222 0.149 0.371 0.372 0.371zM13.804 15.16h4.391c0.223 0 0.372-0.148 0.372-0.371v-4.819c0-0.222-0.149-0.371-0.372-0.371h-4.391c-0.223 0-0.372 0.148-0.372 0.371v4.819c0 0.222 0.149 0.371 0.372 0.371zM24.077 9.6h-4.391c-0.223 0-0.372 0.148-0.372 0.371v4.819c0 0.222 0.149 0.371 0.372 0.371h4.391c0.223 0 0.372-0.148 0.372-0.371v-4.819c0-0.222-0.149-0.371-0.372-0.371zM24.077 19.608h-16.153c-0.223 0-0.372 0.148-0.372 0.371v2.224c0 0.222 0.149 0.371 0.372 0.371h2.156c0.223 0 0.372-0.148 0.372-0.371v-0.371h11.095v0.371c0 0.222 0.149 0.371 0.372 0.371h2.156c0.223 0 0.372-0.148 0.372-0.371v-2.224c0-0.222-0.149-0.371-0.372-0.371z"></path>
</symbol>
<symbol id="icon-favorite-icon" viewBox="0 0 32 32">
<path fill="#f8f8f8" style="fill: var(--color6, #f8f8f8)" d="M32 16c0 8.837-7.163 16-16 16s-16-7.163-16-16c0-8.837 7.163-16 16-16s16 7.163 16 16z"></path>
<path fill="#b1b1b1" style="fill: var(--color1, #b1b1b1)" d="M22.76 10.519c-0.88-0.882-2.046-1.42-3.288-1.518s-2.478 0.253-3.484 0.987c-1.056-0.785-2.37-1.142-3.678-0.997s-2.512 0.78-3.371 1.777c-0.858 0.997-1.307 2.283-1.256 3.598s0.599 2.562 1.533 3.489l5.154 5.162c0.432 0.425 1.013 0.663 1.618 0.663s1.187-0.238 1.618-0.663l5.154-5.162c0.969-0.975 1.513-2.293 1.513-3.668s-0.544-2.693-1.513-3.668zM21.59 16.71l-5.153 5.154c-0.059 0.059-0.128 0.106-0.205 0.138s-0.159 0.049-0.243 0.049c-0.083 0-0.166-0.017-0.243-0.049s-0.147-0.079-0.205-0.138l-5.154-5.178c-0.651-0.665-1.015-1.559-1.015-2.49s0.364-1.824 1.015-2.49c0.663-0.655 1.558-1.022 2.49-1.022s1.826 0.367 2.49 1.022c0.077 0.078 0.169 0.14 0.27 0.182s0.21 0.064 0.319 0.064c0.11 0 0.218-0.022 0.319-0.064s0.193-0.104 0.27-0.182c0.663-0.655 1.558-1.022 2.49-1.022s1.826 0.367 2.49 1.022c0.66 0.657 1.036 1.545 1.049 2.476s-0.34 1.829-0.982 2.503v0.025z"></path>
</symbol>
<symbol id="icon-favorites" viewBox="0 0 32 32">
<path fill="none" stroke="#ffbc57" style="stroke: var(--color2, #ffbc57)" stroke-linejoin="miter" stroke-linecap="butt" stroke-miterlimit="4" stroke-width="1.28" d="M31.36 16c0 8.483-6.877 15.36-15.36 15.36s-15.36-6.877-15.36-15.36c0-8.483 6.877-15.36 15.36-15.36s15.36 6.877 15.36 15.36z"></path>
<path fill="#535353" style="fill: var(--color5, #535353)" d="M22.76 10.519c-0.88-0.882-2.046-1.42-3.288-1.518s-2.478 0.253-3.484 0.987c-1.056-0.785-2.37-1.142-3.678-0.997s-2.512 0.78-3.371 1.777c-0.858 0.997-1.307 2.283-1.256 3.598s0.599 2.562 1.533 3.489l5.154 5.162c0.432 0.425 1.013 0.663 1.618 0.663s1.187-0.238 1.618-0.663l5.154-5.162c0.969-0.975 1.513-2.293 1.513-3.668s-0.544-2.693-1.513-3.668zM21.59 16.71l-5.153 5.154c-0.059 0.059-0.128 0.106-0.205 0.138s-0.159 0.049-0.243 0.049c-0.083 0-0.166-0.017-0.243-0.049s-0.147-0.079-0.205-0.138l-5.154-5.178c-0.651-0.665-1.015-1.559-1.015-2.49s0.364-1.824 1.015-2.49c0.663-0.655 1.558-1.022 2.49-1.022s1.826 0.367 2.49 1.022c0.077 0.078 0.169 0.14 0.27 0.182s0.21 0.064 0.319 0.064c0.11 0 0.218-0.022 0.319-0.064s0.193-0.104 0.27-0.182c0.663-0.655 1.558-1.022 2.49-1.022s1.826 0.367 2.49 1.022c0.66 0.657 1.036 1.545 1.049 2.476s-0.34 1.829-0.982 2.503v0.025z"></path>
</symbol>
<symbol id="icon-icon-tel" viewBox="0 0 32 32">
<path fill="#f8f8f8" style="fill: var(--color6, #f8f8f8)" d="M32 16c0 8.837-7.163 16-16 16s-16-7.163-16-16c0-8.837 7.163-16 16-16s16 7.163 16 16z"></path>
<path fill="#535353" style="fill: var(--color5, #535353)" d="M21.179 17.085c-0.163 0-0.332-0.052-0.495-0.089-0.329-0.074-0.652-0.17-0.968-0.288-0.343-0.125-0.719-0.118-1.058 0.018s-0.614 0.393-0.774 0.721l-0.163 0.34c-0.717-0.407-1.38-0.903-1.972-1.477-0.574-0.592-1.070-1.255-1.477-1.972l0.34-0.155c0.328-0.16 0.584-0.436 0.72-0.774s0.143-0.715 0.018-1.058c-0.117-0.318-0.213-0.644-0.288-0.975-0.037-0.162-0.066-0.332-0.089-0.495-0.090-0.52-0.362-0.992-0.768-1.329s-0.92-0.518-1.448-0.511h-2.223c-0.312-0-0.621 0.065-0.906 0.192s-0.54 0.313-0.748 0.546c-0.213 0.239-0.371 0.521-0.464 0.827s-0.119 0.629-0.075 0.945c0.402 3.075 1.806 5.931 3.996 8.126 2.195 2.19 5.051 3.595 8.125 3.996 0.096 0.007 0.192 0.007 0.288 0 0.545 0.001 1.071-0.199 1.477-0.561 0.233-0.208 0.419-0.463 0.546-0.748s0.193-0.594 0.192-0.906v-2.216c-0.004-0.51-0.184-1.004-0.51-1.397s-0.777-0.662-1.278-0.76zM21.541 21.518c-0 0.103-0.022 0.205-0.064 0.299s-0.103 0.178-0.18 0.248c-0.081 0.074-0.177 0.129-0.282 0.16s-0.215 0.040-0.324 0.024c-2.757-0.36-5.318-1.616-7.291-3.575-1.974-1.974-3.241-4.545-3.605-7.313-0.016-0.108-0.008-0.219 0.024-0.324s0.087-0.201 0.161-0.282c0.070-0.077 0.155-0.139 0.251-0.181s0.199-0.063 0.303-0.063h2.216c0.171-0.004 0.338 0.051 0.472 0.156s0.229 0.254 0.266 0.42c0 0.199 0.066 0.406 0.111 0.606 0.085 0.387 0.199 0.767 0.34 1.138l-1.034 0.488c-0.178 0.082-0.316 0.23-0.384 0.414-0.074 0.18-0.074 0.382 0 0.561 1.063 2.277 2.894 4.108 5.171 5.171 0.18 0.074 0.382 0.074 0.561 0 0.183-0.068 0.332-0.206 0.414-0.384l0.465-1.034c0.381 0.139 0.771 0.252 1.167 0.34 0.192 0.044 0.399 0.081 0.598 0.111 0.167 0.038 0.315 0.132 0.42 0.266s0.16 0.302 0.156 0.472l0.066 2.283zM17.182 8.96c-0.17 0-0.347 0-0.517 0-0.196 0.017-0.377 0.11-0.504 0.261s-0.189 0.345-0.172 0.541 0.11 0.377 0.261 0.504c0.15 0.127 0.345 0.189 0.541 0.172h0.392c1.175 0 2.303 0.467 3.134 1.298s1.298 1.958 1.298 3.134c0 0.133 0 0.259 0 0.392-0.016 0.195 0.045 0.388 0.171 0.538s0.306 0.243 0.501 0.26h0.059c0.185 0.001 0.363-0.068 0.5-0.192s0.222-0.296 0.239-0.48c0-0.17 0-0.347 0-0.517 0-1.566-0.622-3.068-1.728-4.176s-2.608-1.731-4.174-1.733zM18.66 14.869c0 0.196 0.078 0.384 0.216 0.522s0.326 0.216 0.522 0.216 0.384-0.078 0.522-0.216c0.139-0.139 0.216-0.326 0.216-0.522 0-0.784-0.311-1.535-0.865-2.089s-1.306-0.865-2.089-0.865c-0.196 0-0.384 0.078-0.522 0.216s-0.216 0.326-0.216 0.522 0.078 0.384 0.216 0.522c0.139 0.139 0.326 0.216 0.522 0.216 0.392 0 0.768 0.156 1.045 0.433s0.433 0.653 0.433 1.045z"></path>
</symbol>
<symbol id="icon-in-stock-icon" viewBox="0 0 32 32">
<path fill="#82b09d" style="fill: var(--color8, #82b09d)" d="M20.352 10.864l-6.864 6.88-2.64-2.64c-0.143-0.168-0.32-0.304-0.518-0.4s-0.415-0.15-0.635-0.159c-0.22-0.008-0.44 0.029-0.645 0.109s-0.392 0.202-0.548 0.358c-0.156 0.156-0.278 0.342-0.358 0.548s-0.118 0.425-0.109 0.645c0.008 0.22 0.062 0.436 0.159 0.635s0.232 0.375 0.4 0.518l3.76 3.776c0.149 0.148 0.327 0.266 0.522 0.345s0.404 0.12 0.614 0.119c0.42-0.002 0.822-0.168 1.12-0.464l8-8c0.15-0.149 0.269-0.326 0.35-0.521s0.123-0.404 0.123-0.615c0-0.211-0.042-0.42-0.123-0.615s-0.2-0.372-0.35-0.521c-0.3-0.298-0.705-0.465-1.128-0.465s-0.828 0.167-1.128 0.465zM16 0c-3.165 0-6.258 0.938-8.889 2.696s-4.682 4.257-5.893 7.181c-1.211 2.924-1.528 6.141-0.91 9.244s2.141 5.955 4.379 8.192c2.238 2.238 5.089 3.761 8.192 4.379s6.321 0.3 9.244-0.911c2.924-1.211 5.423-3.262 7.181-5.893s2.696-5.725 2.696-8.889c0-2.101-0.414-4.182-1.218-6.123s-1.983-3.705-3.468-5.191c-1.486-1.486-3.25-2.664-5.191-3.468s-4.022-1.218-6.123-1.218zM16 28.8c-2.532 0-5.006-0.751-7.111-2.157s-3.746-3.406-4.714-5.744-1.222-4.913-0.728-7.396c0.494-2.483 1.713-4.764 3.503-6.554s4.071-3.009 6.554-3.503c2.483-0.494 5.057-0.24 7.396 0.728s4.338 2.609 5.744 4.714c1.406 2.105 2.157 4.58 2.157 7.111 0 3.395-1.348 6.651-3.749 9.051s-5.656 3.749-9.051 3.749z"></path>
</symbol>
<symbol id="icon-instagram-icon" viewBox="0 0 32 32">
<path fill="#af24d1" style="fill: var(--color9, #af24d1)" d="M22.144 9.088c0.256 0.256 0.384 0.64 0.384 1.024s-0.128 0.768-0.384 1.024c-0.256 0.128-0.64 0.384-0.896 0.384-0.384 0-0.768-0.128-1.024-0.384s-0.384-0.64-0.384-1.024c0-0.384 0.128-0.768 0.384-1.024s0.64-0.384 1.024-0.384c0.256 0 0.64 0.128 0.896 0.384zM16 11.008c-2.816 0-4.992 2.304-4.992 4.992s2.304 4.992 4.992 4.992c2.816 0 4.992-2.304 4.992-4.992s-2.176-4.992-4.992-4.992zM32 16c0 8.832-7.168 16-16 16s-16-7.168-16-16c0-8.832 7.168-16 16-16s16 7.168 16 16zM25.472 13.056c0-1.792-0.64-3.328-1.92-4.608s-2.816-1.92-4.608-1.92h-6.016c-1.792 0-3.328 0.64-4.608 1.92s-1.92 2.816-1.92 4.608v6.016c0 1.792 0.64 3.328 1.92 4.608s2.816 1.92 4.608 1.92h6.016c1.792 0 3.328-0.64 4.608-1.92s1.92-2.816 1.92-4.608v-6.016z"></path>
</symbol>
<symbol id="icon-logo-footer" viewBox="0 0 32 32">
<path fill="#fff" style="fill: var(--color3, #fff)" d="M12.611 17.476h-0.465v-0.239h1.171v0.239h-0.465v1.18h-0.257v-1.18h0.016zM14.471 18.656h-0.85v-1.42h0.818v0.239h-0.577v0.351h0.513v0.239h-0.513v0.367h0.593v0.223h0.016zM15.706 17.236h0.289l-0.481 0.686 0.497 0.718h-0.289l-0.369-0.526-0.369 0.526h-0.289l0.497-0.718-0.481-0.686h0.289l0.353 0.511 0.353-0.511zM17.47 18.656h-0.256v-0.606h-0.642v0.606h-0.256v-1.42h0.256v0.574h0.658v-0.574h0.241v1.42zM17.839 17.954c0-0.207 0.064-0.383 0.208-0.526s0.321-0.207 0.529-0.207c0.208 0 0.385 0.064 0.529 0.207s0.208 0.319 0.208 0.526-0.064 0.383-0.208 0.526c-0.144 0.144-0.321 0.207-0.529 0.207s-0.385-0.064-0.529-0.207c-0.144-0.144-0.208-0.319-0.208-0.526zM18.096 17.954c0 0.144 0.048 0.255 0.128 0.351s0.209 0.144 0.337 0.144c0.144 0 0.257-0.048 0.353-0.144 0.080-0.096 0.128-0.207 0.128-0.351s-0.048-0.271-0.144-0.351c-0.096-0.096-0.209-0.144-0.337-0.144-0.144 0-0.256 0.048-0.337 0.144-0.080 0.080-0.128 0.207-0.128 0.351zM20.726 18.656h-0.241v-1.18h-0.417l-0.032 0.271c-0.016 0.16-0.032 0.303-0.064 0.415s-0.048 0.207-0.080 0.271c-0.032 0.064-0.064 0.128-0.112 0.16s-0.080 0.064-0.128 0.064c-0.048 0.016-0.096 0.016-0.16 0v-0.239c0.032 0 0.048 0 0.080 0 0.016 0 0.048-0.032 0.064-0.064 0.032-0.032 0.048-0.080 0.064-0.144 0.048-0.144 0.080-0.367 0.112-0.686l0.016-0.287h0.898v1.42zM21.094 17.954c0-0.207 0.064-0.383 0.208-0.526s0.321-0.207 0.529-0.207c0.208 0 0.385 0.064 0.529 0.207s0.209 0.319 0.209 0.526-0.064 0.383-0.209 0.526c-0.144 0.144-0.321 0.207-0.529 0.207s-0.385-0.064-0.529-0.207c-0.144-0.144-0.208-0.319-0.208-0.526zM21.367 17.954c0 0.144 0.048 0.255 0.128 0.351s0.208 0.144 0.337 0.144c0.144 0 0.256-0.048 0.353-0.144 0.080-0.096 0.128-0.207 0.128-0.351s-0.048-0.271-0.144-0.351c-0.096-0.096-0.209-0.144-0.337-0.144-0.144 0-0.257 0.048-0.337 0.144-0.096 0.080-0.128 0.207-0.128 0.351zM23.195 18.656h-0.257v-1.42h0.802v0.239h-0.545v1.18zM24.334 18.656h-0.257v-1.42h0.257v1.42zM24.702 16.997c0-0.032 0.016-0.064 0.032-0.096 0.032-0.016 0.064-0.032 0.096-0.032s0.064 0.016 0.096 0.032 0.032 0.048 0.032 0.096c0 0.048-0.016 0.080-0.032 0.096s-0.048 0.032-0.096 0.032c-0.032 0-0.064-0.016-0.096-0.032-0.016-0.032-0.032-0.064-0.032-0.096zM25.119 18.656h-0.256v-1.42h0.256v1.42zM25.039 16.997c0-0.032 0.016-0.064 0.032-0.096 0.032-0.016 0.064-0.032 0.096-0.032s0.064 0.016 0.096 0.032c0.032 0.032 0.032 0.048 0.032 0.096s-0.016 0.080-0.032 0.096c-0.016 0.032-0.048 0.032-0.096 0.032s-0.080-0.016-0.096-0.032c-0.016-0.032-0.032-0.064-0.032-0.096zM27.124 18.337l0.096 0.191c-0.048 0.048-0.112 0.080-0.192 0.112s-0.176 0.048-0.257 0.048c-0.224 0-0.401-0.064-0.529-0.207-0.128-0.128-0.209-0.303-0.209-0.526 0-0.207 0.064-0.383 0.192-0.526s0.305-0.207 0.529-0.207c0.176 0 0.321 0.048 0.433 0.144l-0.112 0.191c-0.096-0.064-0.209-0.096-0.321-0.096-0.128 0-0.241 0.048-0.337 0.128-0.080 0.096-0.128 0.207-0.128 0.367 0 0.144 0.048 0.271 0.128 0.367 0.096 0.096 0.209 0.144 0.353 0.144 0.144-0.016 0.257-0.048 0.353-0.128zM28.695 18.656h-0.241v-0.606h-0.658v0.606h-0.256v-1.42h0.256v0.574h0.658v-0.574h0.241v1.42zM30.091 17.236h0.256l-0.481 1.085c-0.048 0.112-0.112 0.191-0.16 0.255-0.064 0.048-0.128 0.080-0.224 0.080s-0.144-0.016-0.192-0.064l0.080-0.207c0.032 0.016 0.064 0.032 0.112 0.032 0.064 0 0.112-0.032 0.144-0.096l0.016-0.048-0.625-1.037h0.289l0.465 0.798 0.321-0.798z"></path>
<path fill="#fff" style="fill: var(--color3, #fff)" d="M11.859 14.812l1.379 1.675h-0.882l-1.107-1.388v1.388h-0.69v-3.143h0.69v1.276l1.058-1.276h0.85l-1.299 1.468zM25.922 13.998h0.962v2.489h0.69v-2.489h0.962v-0.654h-2.63v0.654h0.016zM15.226 15.226l0.978 1.26h-0.834l-0.818-1.117h-0.257v1.117h-0.69v-3.143h0.080c0.144 0 0.305 0 0.481 0s0.321 0 0.433 0c0.962 0 1.171 0.542 1.171 1.005 0 0.239-0.064 0.447-0.192 0.606-0.112 0.112-0.225 0.207-0.353 0.271zM14.376 13.998c-0.032 0-0.048 0-0.080 0v0.718h0.257c0.144 0 0.273-0.032 0.369-0.112 0.080-0.064 0.128-0.16 0.128-0.271 0-0.159-0.048-0.351-0.481-0.351-0.016 0-0.032 0-0.064 0-0.032 0.016-0.080 0.016-0.128 0.016zM24.816 13.344l1.331 3.143h-0.738l-0.305-0.766h-1.171l-0.305 0.766h-0.706l1.315-3.143h0.577zM24.511 14.301l-0.321 0.766h0.641l-0.321-0.766zM31.936 14.923c0 0.463-0.16 0.861-0.465 1.165s-0.706 0.463-1.171 0.463-0.866-0.144-1.171-0.447c-0.305-0.303-0.465-0.686-0.465-1.165 0-0.447 0.16-0.845 0.465-1.149s0.706-0.463 1.171-0.463 0.866 0.144 1.171 0.447c0.305 0.271 0.465 0.67 0.465 1.149zM30.973 15.609c0.176-0.191 0.257-0.415 0.257-0.702s-0.080-0.51-0.273-0.702c-0.176-0.175-0.401-0.271-0.658-0.271-0.273 0-0.481 0.096-0.657 0.271s-0.257 0.415-0.257 0.702c0 0.287 0.080 0.51 0.257 0.686 0.176 0.191 0.385 0.271 0.657 0.271 0.289 0.016 0.497-0.064 0.674-0.255zM22.538 13.344l-0.802 2.074-0.834-2.074h-0.738l1.299 3.143h0.513l1.267-3.143h-0.706z"></path>
<path fill="#00b5ff" style="fill: var(--color10, #00b5ff)" d="M19.597 13.631c-0.193-0.192-0.45-0.303-0.723-0.303s-0.53 0.112-0.723 0.303l-0.048 0.048-0.064-0.064c-0.193-0.192-0.45-0.303-0.723-0.303s-0.531 0.112-0.723 0.303-0.306 0.447-0.306 0.718c0 0.271 0.113 0.527 0.306 0.718l1.399 1.389c0.032 0.032 0.064 0.048 0.113 0.048s0.080-0.016 0.113-0.048l1.399-1.389c0.193-0.192 0.305-0.447 0.305-0.718s-0.113-0.511-0.322-0.702z"></path>
<path fill="#ffbc00" style="fill: var(--color11, #ffbc00)" d="M16.166 14.633h3.849v1.931h-3.849v-1.931z"></path>
<path fill="#ffbc57" style="fill: var(--color2, #ffbc57)" d="M0.926 15.155v3.379c0 0.092-0.062 0.154-0.154 0.154h-0.617c-0.093 0-0.154-0.061-0.154-0.154v-3.379c0-0.092 0.062-0.154 0.154-0.154h0.617c0.093 0 0.154 0.077 0.154 0.154zM9.318 15.002h-0.617c-0.093 0-0.154 0.061-0.154 0.154v3.379c0 0.092 0.062 0.154 0.154 0.154h0.617c0.093 0 0.154-0.061 0.154-0.154v-3.379c0-0.077-0.062-0.154-0.154-0.154z"></path>
<path fill="#ffbc57" style="fill: var(--color2, #ffbc57)" d="M8.237 16.077v0.922c0 0.092-0.062 0.154-0.154 0.154h-6.694c-0.093 0-0.154-0.061-0.154-0.154v-0.922c0-0.092 0.062-0.154 0.154-0.154h6.694c0.093 0 0.154 0.061 0.154 0.154zM1.389 15.616h1.82c0.093 0 0.154-0.061 0.154-0.154v-1.997c0-0.092-0.062-0.154-0.154-0.154h-1.82c-0.093 0-0.154 0.061-0.154 0.154v1.997c0 0.092 0.062 0.154 0.154 0.154zM3.826 15.616h1.82c0.093 0 0.154-0.061 0.154-0.154v-1.997c0-0.092-0.062-0.154-0.154-0.154h-1.82c-0.093 0-0.154 0.061-0.154 0.154v1.997c0 0.092 0.062 0.154 0.154 0.154zM8.083 13.312h-1.82c-0.093 0-0.154 0.061-0.154 0.154v1.997c0 0.092 0.062 0.154 0.154 0.154h1.82c0.093 0 0.154-0.061 0.154-0.154v-1.997c0-0.092-0.062-0.154-0.154-0.154zM8.083 17.459h-6.694c-0.093 0-0.154 0.061-0.154 0.154v0.922c0 0.092 0.062 0.154 0.154 0.154h0.894c0.093 0 0.154-0.061 0.154-0.154v-0.154h4.598v0.154c0 0.092 0.062 0.154 0.154 0.154h0.894c0.093 0 0.154-0.061 0.154-0.154v-0.922c0-0.092-0.062-0.154-0.154-0.154z"></path>
</symbol>
<symbol id="icon-logo-header" viewBox="0 0 160 32">
<path fill="#535353" style="fill: var(--color1, #535353)" d="M63.057 23.378h-2.325v-1.196h5.853v1.196h-2.325v5.902h-1.283v-5.902h0.080zM72.357 29.28h-4.249v-7.099h4.089v1.196h-2.886v1.755h2.566v1.196h-2.566v1.834h2.966v1.117h0.080zM78.531 22.182h1.443l-2.405 3.43 2.486 3.589h-1.444l-1.844-2.632-1.844 2.632h-1.443l2.486-3.589-2.405-3.43h1.443l1.764 2.552 1.764-2.552zM87.351 29.28h-1.283v-3.031h-3.208v3.031h-1.283v-7.099h1.283v2.871h3.288v-2.871h1.203v7.099zM89.196 25.771c0-1.037 0.321-1.914 1.042-2.632s1.604-1.037 2.646-1.037c1.042 0 1.924 0.319 2.646 1.037s1.042 1.595 1.042 2.632c0 1.037-0.321 1.914-1.042 2.632s-1.604 1.037-2.646 1.037c-1.043 0-1.924-0.319-2.646-1.037s-1.042-1.595-1.042-2.632zM90.478 25.771c0 0.718 0.241 1.276 0.641 1.755s1.043 0.718 1.684 0.718c0.722 0 1.283-0.239 1.764-0.718 0.401-0.479 0.642-1.037 0.642-1.755s-0.241-1.356-0.722-1.755c-0.481-0.479-1.043-0.718-1.684-0.718-0.721 0-1.283 0.239-1.684 0.718-0.401 0.399-0.641 1.037-0.641 1.755zM103.628 29.28h-1.203v-5.902h-2.084l-0.161 1.356c-0.080 0.798-0.16 1.515-0.321 2.074s-0.241 1.037-0.401 1.356c-0.161 0.319-0.321 0.638-0.561 0.798s-0.401 0.319-0.642 0.319c-0.24 0.080-0.481 0.080-0.801 0v-1.196c0.16 0 0.24 0 0.401 0 0.080 0 0.241-0.16 0.321-0.319 0.161-0.16 0.241-0.399 0.321-0.718 0.241-0.718 0.401-1.834 0.561-3.43l0.080-1.436h4.49v7.099zM105.472 25.771c0-1.037 0.321-1.914 1.042-2.632s1.604-1.037 2.646-1.037c1.042 0 1.924 0.319 2.646 1.037s1.043 1.595 1.043 2.632c0 1.037-0.321 1.914-1.043 2.632s-1.604 1.037-2.646 1.037c-1.043 0-1.924-0.319-2.646-1.037s-1.042-1.595-1.042-2.632zM106.835 25.771c0 0.718 0.241 1.276 0.642 1.755s1.042 0.718 1.684 0.718c0.721 0 1.283-0.239 1.764-0.718 0.401-0.479 0.641-1.037 0.641-1.755s-0.241-1.356-0.721-1.755c-0.481-0.479-1.043-0.718-1.684-0.718-0.722 0-1.283 0.239-1.684 0.718-0.481 0.399-0.642 1.037-0.642 1.755zM115.976 29.28h-1.283v-7.099h4.009v1.196h-2.726v5.902zM121.668 29.28h-1.283v-7.099h1.283v7.099zM123.512 20.985c0-0.16 0.080-0.319 0.161-0.479 0.16-0.080 0.321-0.16 0.481-0.16s0.321 0.080 0.481 0.16c0.161 0.080 0.161 0.239 0.161 0.479s-0.081 0.399-0.161 0.479c-0.080 0.080-0.241 0.16-0.481 0.16-0.16 0-0.321-0.080-0.481-0.16-0.081-0.16-0.161-0.319-0.161-0.479zM125.597 29.28h-1.283v-7.099h1.283v7.099zM125.196 20.985c0-0.16 0.080-0.319 0.16-0.479 0.161-0.080 0.321-0.16 0.481-0.16s0.321 0.080 0.481 0.16c0.16 0.16 0.16 0.239 0.16 0.479s-0.080 0.399-0.16 0.479c-0.080 0.16-0.241 0.16-0.481 0.16s-0.401-0.080-0.481-0.16c-0.080-0.16-0.16-0.319-0.16-0.479zM135.619 27.685l0.481 0.957c-0.241 0.239-0.561 0.399-0.962 0.558s-0.882 0.239-1.283 0.239c-1.123 0-2.004-0.319-2.646-1.037-0.641-0.638-1.043-1.515-1.043-2.632 0-1.037 0.321-1.914 0.963-2.632s1.523-1.037 2.646-1.037c0.882 0 1.604 0.239 2.165 0.718l-0.561 0.957c-0.481-0.319-1.043-0.479-1.604-0.479-0.641 0-1.203 0.239-1.684 0.638-0.401 0.479-0.641 1.037-0.641 1.835 0 0.718 0.241 1.356 0.641 1.834 0.481 0.479 1.043 0.718 1.764 0.718 0.722-0.080 1.283-0.239 1.764-0.638zM143.477 29.28h-1.203v-3.031h-3.288v3.031h-1.283v-7.099h1.283v2.871h3.288v-2.871h1.203v7.099zM150.453 22.182h1.283l-2.405 5.424c-0.241 0.558-0.561 0.957-0.802 1.276-0.321 0.239-0.641 0.399-1.123 0.399s-0.722-0.080-0.963-0.319l0.401-1.037c0.16 0.080 0.321 0.16 0.561 0.16 0.321 0 0.561-0.16 0.721-0.479l0.081-0.239-3.127-5.184h1.443l2.325 3.988 1.604-3.988z"></path>
<path fill="#535353" style="fill: var(--color1, #535353)" d="M59.293 10.058l6.896 8.375h-4.41l-5.532-6.939v6.939h-3.448v-15.713h3.448v6.381l5.292-6.381h4.25l-6.495 7.338zM129.61 5.99h4.811v12.443h3.448v-12.443h4.811v-3.27h-13.149v3.27h0.080zM76.131 12.132l4.891 6.301h-4.17l-4.089-5.583h-1.283v5.583h-3.448v-15.713h0.401c0.721 0 1.523 0 2.405 0s1.604 0 2.165 0c4.811 0 5.853 2.712 5.853 5.025 0 1.196-0.321 2.233-0.962 3.031-0.561 0.558-1.123 1.037-1.764 1.356zM71.881 5.99c-0.161 0-0.241 0-0.401 0v3.589h1.283c0.722 0 1.363-0.16 1.844-0.558 0.401-0.319 0.642-0.798 0.642-1.356 0-0.798-0.241-1.755-2.406-1.755-0.080 0-0.16 0-0.321 0-0.16 0.080-0.401 0.080-0.641 0.080zM124.078 2.72l6.655 15.713h-3.688l-1.523-3.829h-5.853l-1.524 3.829h-3.528l6.575-15.713h2.886zM122.555 7.505l-1.604 3.829h3.207l-1.603-3.829zM159.678 10.616c0 2.313-0.802 4.307-2.325 5.823s-3.528 2.313-5.853 2.313-4.33-0.718-5.853-2.233c-1.524-1.516-2.325-3.43-2.325-5.823 0-2.233 0.801-4.227 2.325-5.743s3.528-2.313 5.853-2.313 4.33 0.718 5.853 2.233c1.523 1.356 2.325 3.35 2.325 5.743zM154.867 14.046c0.882-0.957 1.283-2.074 1.283-3.51s-0.401-2.552-1.363-3.51c-0.882-0.877-2.004-1.356-3.288-1.356-1.363 0-2.405 0.479-3.287 1.356s-1.283 2.074-1.283 3.51 0.401 2.552 1.283 3.43c0.882 0.957 1.924 1.356 3.287 1.356 1.443 0.080 2.486-0.319 3.368-1.276zM112.692 2.72l-4.009 10.369-4.17-10.369h-3.688l6.495 15.713h2.566l6.334-15.713h-3.528z"></path>
<path fill="#00b5ff" style="fill: var(--color2, #00b5ff)" d="M97.985 4.156c-0.964-0.958-2.251-1.517-3.617-1.517s-2.652 0.559-3.617 1.517l-0.241 0.239-0.322-0.319c-0.964-0.958-2.25-1.517-3.617-1.517s-2.653 0.559-3.617 1.517-1.528 2.235-1.528 3.592c0 1.357 0.563 2.634 1.528 3.592l6.993 6.944c0.161 0.16 0.321 0.239 0.563 0.239s0.402-0.080 0.563-0.239l6.993-6.944c0.964-0.958 1.527-2.235 1.527-3.592s-0.563-2.554-1.608-3.512z"></path>
<path fill="#ffbc00" style="fill: var(--color3, #ffbc00)" d="M80.828 9.167h19.243v9.654h-19.243v-9.654z"></path>
<path fill="#ffbc57" style="fill: var(--color4, #ffbc57)" d="M4.63 11.776v16.896c0 0.461-0.309 0.768-0.772 0.768h-3.087c-0.463 0-0.772-0.307-0.772-0.768v-16.896c0-0.461 0.309-0.768 0.772-0.768h3.087c0.463 0 0.772 0.384 0.772 0.768zM46.588 11.008h-3.087c-0.463 0-0.772 0.307-0.772 0.768v16.896c0 0.461 0.309 0.768 0.772 0.768h3.087c0.463 0 0.772-0.307 0.772-0.768v-16.896c0-0.384-0.309-0.768-0.772-0.768z"></path>
<path fill="#ffbc57" style="fill: var(--color4, #ffbc57)" d="M41.186 16.384v4.608c0 0.461-0.309 0.768-0.772 0.768h-33.469c-0.463 0-0.772-0.307-0.772-0.768v-4.608c0-0.461 0.309-0.768 0.772-0.768h33.469c0.463 0 0.772 0.307 0.772 0.768zM6.945 14.080h9.098c0.463 0 0.772-0.307 0.772-0.768v-9.984c0-0.461-0.309-0.768-0.772-0.768h-9.098c-0.463 0-0.772 0.307-0.772 0.768v9.984c0 0.461 0.309 0.768 0.772 0.768zM19.131 14.080h9.099c0.463 0 0.772-0.307 0.772-0.768v-9.984c0-0.461-0.309-0.768-0.772-0.768h-9.099c-0.463 0-0.772 0.307-0.772 0.768v9.984c0 0.461 0.309 0.768 0.772 0.768zM40.415 2.56h-9.099c-0.463 0-0.772 0.307-0.772 0.768v9.984c0 0.461 0.309 0.768 0.772 0.768h9.099c0.463 0 0.772-0.307 0.772-0.768v-9.984c0-0.461-0.309-0.768-0.772-0.768zM40.415 23.296h-33.469c-0.463 0-0.772 0.307-0.772 0.768v4.608c0 0.461 0.309 0.768 0.772 0.768h4.468c0.463 0 0.772-0.307 0.772-0.768v-0.768h22.989v0.768c0 0.461 0.309 0.768 0.772 0.768h4.468c0.463 0 0.772-0.307 0.772-0.768v-4.608c0-0.461-0.309-0.768-0.772-0.768z"></path>
</symbol>
<symbol id="icon-mastercard-icon" viewBox="0 0 32 32">
<path fill="#b1b1b1" style="fill: var(--color1, #b1b1b1)" d="M11.654 19.387c0 0.118 0 0.235-0.038 0.353-0.077 0.157-0.192 0.314-0.345 0.353-0.192 0.039-0.345 0.039-0.536 0-0.077-0.039-0.153-0.078-0.23-0.118-0.077-0.078-0.115-0.157-0.153-0.235-0.038-0.118-0.038-0.235-0.038-0.353v-1.568h-0.613v1.607c0 0.196 0.038 0.392 0.115 0.588 0.077 0.157 0.153 0.274 0.268 0.392s0.268 0.196 0.421 0.235c0.306 0.078 0.651 0.078 0.958 0 0.153-0.039 0.306-0.118 0.421-0.235s0.23-0.235 0.268-0.392c0.077-0.196 0.115-0.392 0.115-0.588v-1.607h-0.613v1.568zM14.45 17.741c-0.153 0-0.306 0.039-0.46 0.078-0.153 0.078-0.268 0.157-0.345 0.314v-0.314h-0.613v2.783h0.613v-1.529c0-0.118 0-0.196 0.038-0.314 0.038-0.078 0.077-0.157 0.115-0.235 0.077-0.078 0.115-0.118 0.192-0.157s0.191-0.039 0.268-0.039c0.077 0 0.153 0 0.23 0.039 0.077 0 0.153 0.039 0.23 0.078l0.153-0.588c-0.077-0.039-0.153-0.039-0.23-0.078-0.038-0.039-0.115-0.039-0.192-0.039zM15.714 18.956c0-0.078 0.038-0.196 0.077-0.274s0.077-0.157 0.153-0.235c0.077-0.078 0.153-0.118 0.23-0.157s0.192-0.039 0.268-0.039 0.345 0.039 0.46 0.196c0.115 0.157 0.192 0.314 0.23 0.51h-1.417zM17.399 18.133c-0.115-0.118-0.268-0.235-0.421-0.314s-0.345-0.118-0.536-0.118c-0.192 0-0.383 0.039-0.536 0.118s-0.306 0.157-0.421 0.314c-0.115 0.118-0.23 0.274-0.268 0.47-0.077 0.196-0.115 0.392-0.115 0.588s0.038 0.392 0.115 0.588c0.115 0.353 0.383 0.627 0.728 0.745 0.191 0.078 0.383 0.118 0.575 0.118s0.421-0.039 0.613-0.078c0.192-0.078 0.383-0.157 0.536-0.314l-0.306-0.431c-0.115 0.078-0.23 0.157-0.383 0.235-0.115 0.039-0.268 0.078-0.421 0.078-0.077 0-0.192 0-0.268-0.039s-0.153-0.078-0.23-0.118c-0.077-0.078-0.153-0.157-0.192-0.235-0.038-0.118-0.077-0.196-0.115-0.314h2.068v-0.235c0-0.196-0.038-0.392-0.115-0.588-0.077-0.157-0.192-0.314-0.306-0.47zM2.767 18.564c-0.115-0.078-0.268-0.157-0.421-0.196s-0.306-0.078-0.46-0.118l-0.268-0.039c-0.115 0-0.23-0.039-0.345-0.078-0.077-0.039-0.192-0.039-0.268-0.118-0.077-0.039-0.115-0.078-0.153-0.157s-0.077-0.157-0.077-0.235c0-0.078 0.038-0.196 0.077-0.235 0.038-0.078 0.115-0.157 0.192-0.196s0.192-0.118 0.268-0.118c0.115-0.039 0.23-0.039 0.383-0.039 0.192 0 0.383 0.039 0.575 0.078 0.192 0.078 0.383 0.157 0.536 0.274l0.306-0.51c-0.192-0.118-0.421-0.235-0.651-0.314-0.268-0.078-0.536-0.118-0.804-0.118-0.192 0-0.421 0.039-0.613 0.078s-0.345 0.118-0.498 0.235c-0.153 0.118-0.268 0.235-0.345 0.392s-0.115 0.353-0.115 0.549c0 0.157 0.038 0.353 0.115 0.47 0.038 0.157 0.115 0.274 0.23 0.353s0.23 0.157 0.383 0.196c0.153 0.078 0.306 0.118 0.46 0.118l0.306 0.039c0.23 0.039 0.46 0.078 0.69 0.196 0.153 0.078 0.23 0.196 0.23 0.353 0 0.078-0.038 0.196-0.077 0.274s-0.115 0.157-0.192 0.196-0.192 0.078-0.306 0.118c-0.115 0.039-0.23 0.039-0.383 0.039-0.115 0-0.23 0-0.345-0.039-0.23-0.039-0.46-0.118-0.651-0.235-0.077-0.039-0.192-0.118-0.23-0.196l-0.383 0.549c0.115 0.078 0.23 0.157 0.345 0.235s0.268 0.118 0.383 0.157c0.153 0.039 0.306 0.078 0.46 0.118s0.268 0.039 0.421 0.039c0.192 0 0.421-0.039 0.613-0.078s0.345-0.118 0.498-0.235c0.153-0.118 0.268-0.235 0.345-0.392s0.115-0.353 0.115-0.549c0-0.157-0.038-0.314-0.115-0.47-0.038-0.196-0.115-0.274-0.23-0.392zM4.223 18.956c0-0.078 0.038-0.196 0.077-0.274s0.077-0.157 0.153-0.235c0.077-0.078 0.153-0.118 0.23-0.157s0.192-0.039 0.268-0.039 0.345 0.078 0.46 0.196c0.115 0.157 0.192 0.314 0.23 0.51h-1.417zM5.908 18.133c-0.115-0.118-0.268-0.235-0.421-0.314s-0.345-0.118-0.536-0.118c-0.191 0-0.383 0.039-0.536 0.118s-0.306 0.157-0.421 0.314c-0.115 0.118-0.23 0.274-0.268 0.47-0.077 0.196-0.115 0.392-0.115 0.588s0.038 0.392 0.115 0.588c0.115 0.353 0.383 0.627 0.728 0.745 0.192 0.078 0.383 0.118 0.575 0.118s0.421-0.039 0.613-0.078c0.192-0.078 0.383-0.157 0.536-0.314l-0.306-0.431c-0.115 0.078-0.23 0.157-0.383 0.235-0.115 0.039-0.268 0.078-0.421 0.078-0.077 0-0.191 0-0.268-0.039s-0.153-0.078-0.23-0.118c-0.077-0.078-0.153-0.157-0.191-0.235-0.038-0.118-0.077-0.196-0.115-0.314h2.030v-0.235c0-0.196-0.038-0.392-0.115-0.588-0.077-0.157-0.153-0.314-0.268-0.47zM8.513 20.014c-0.23 0.118-0.46 0.118-0.689 0.039-0.115-0.039-0.192-0.118-0.268-0.196s-0.115-0.196-0.153-0.274c-0.077-0.235-0.077-0.509 0-0.745 0.038-0.118 0.115-0.196 0.153-0.274 0.077-0.078 0.153-0.157 0.268-0.196s0.192-0.078 0.306-0.078c0.115 0 0.23 0.039 0.345 0.078s0.23 0.118 0.306 0.235l0.383-0.431c-0.115-0.157-0.268-0.274-0.421-0.314-0.191-0.078-0.383-0.118-0.575-0.118s-0.421 0.039-0.613 0.118c-0.345 0.157-0.613 0.431-0.728 0.784-0.153 0.392-0.153 0.784 0 1.176 0.115 0.353 0.421 0.627 0.766 0.784 0.191 0.078 0.383 0.118 0.613 0.118 0.192 0 0.383-0.039 0.575-0.118s0.345-0.196 0.46-0.353l-0.383-0.431c-0.153 0.078-0.23 0.157-0.345 0.196zM28.010 19.544c-0.038 0.118-0.115 0.196-0.153 0.274-0.077 0.078-0.153 0.157-0.268 0.196-0.23 0.078-0.46 0.078-0.689 0-0.192-0.078-0.345-0.274-0.421-0.47-0.077-0.235-0.077-0.47 0-0.706 0.077-0.196 0.23-0.392 0.421-0.47 0.115-0.039 0.23-0.078 0.345-0.078s0.23 0.039 0.345 0.078c0.115 0.039 0.192 0.118 0.268 0.196s0.115 0.196 0.153 0.274c0.077 0.235 0.077 0.509 0 0.706zM28.048 18.133c-0.192-0.274-0.536-0.431-0.881-0.392-0.575 0-1.073 0.353-1.264 0.862-0.153 0.392-0.153 0.784 0 1.176 0.077 0.157 0.153 0.353 0.306 0.47 0.268 0.274 0.613 0.431 0.958 0.431 0.192 0 0.345-0.039 0.498-0.118s0.268-0.157 0.345-0.314v0.353h0.651v-4.194h-0.613v1.725zM29.887 18.956c0-0.078 0.038-0.196 0.077-0.274s0.077-0.157 0.153-0.235c0.077-0.078 0.153-0.118 0.23-0.157s0.192-0.039 0.268-0.039 0.345 0.039 0.46 0.157c0.115 0.157 0.192 0.314 0.23 0.51h-1.417v0.039zM31.572 18.133c-0.115-0.118-0.268-0.235-0.421-0.314s-0.345-0.118-0.536-0.118c-0.192 0-0.345 0.039-0.536 0.118-0.153 0.078-0.306 0.157-0.421 0.314-0.115 0.118-0.23 0.274-0.268 0.47-0.077 0.196-0.115 0.392-0.115 0.588s0.038 0.392 0.115 0.588c0.077 0.157 0.153 0.314 0.306 0.47 0.115 0.118 0.268 0.235 0.421 0.314 0.192 0.078 0.383 0.118 0.575 0.118s0.421-0.039 0.613-0.078c0.192-0.078 0.383-0.157 0.536-0.314l-0.306-0.431c-0.115 0.078-0.23 0.157-0.383 0.235-0.115 0.039-0.268 0.078-0.421 0.078-0.077 0-0.192 0-0.268-0.039s-0.153-0.078-0.23-0.118c-0.077-0.078-0.153-0.157-0.192-0.235-0.038-0.118-0.077-0.196-0.115-0.314h2.030v-0.235c0-0.196-0.038-0.392-0.115-0.588-0.038-0.235-0.153-0.392-0.268-0.51zM24.677 19.544c-0.077 0.196-0.268 0.392-0.46 0.47-0.23 0.078-0.46 0.078-0.689 0-0.192-0.078-0.383-0.235-0.46-0.47s-0.077-0.51 0-0.745c0.038-0.118 0.115-0.196 0.192-0.274s0.153-0.157 0.268-0.196c0.115-0.039 0.23-0.078 0.345-0.078s0.23 0.039 0.345 0.078c0.115 0.039 0.192 0.118 0.268 0.196s0.153 0.196 0.192 0.274c0.115 0.274 0.115 0.51 0 0.745zM24.945 18.133c-0.153-0.118-0.306-0.235-0.46-0.314-0.192-0.078-0.383-0.118-0.575-0.118s-0.421 0.039-0.613 0.118c-0.192 0.078-0.345 0.157-0.46 0.314-0.115 0.118-0.23 0.274-0.306 0.47-0.153 0.392-0.153 0.784 0 1.176 0.077 0.157 0.192 0.314 0.306 0.47 0.153 0.118 0.306 0.235 0.46 0.314 0.383 0.157 0.804 0.157 1.187 0 0.192-0.078 0.345-0.157 0.46-0.314 0.115-0.118 0.23-0.274 0.306-0.47 0.153-0.392 0.153-0.784 0-1.176-0.077-0.157-0.153-0.314-0.306-0.47zM19.315 17.466c0.115-0.118 0.268-0.235 0.46-0.314s0.383-0.118 0.575-0.118c0.23 0 0.46 0.039 0.651 0.157s0.345 0.235 0.46 0.431l0.536-0.353c-0.077-0.118-0.192-0.235-0.306-0.353s-0.23-0.196-0.383-0.274c-0.153-0.078-0.306-0.118-0.46-0.157s-0.345-0.039-0.536-0.039c-0.306 0-0.575 0.039-0.843 0.157-0.498 0.196-0.919 0.588-1.111 1.137s-0.192 1.137 0 1.685c0.192 0.51 0.613 0.901 1.111 1.137 0.421 0.157 0.919 0.196 1.341 0.118 0.153-0.039 0.306-0.078 0.46-0.157s0.268-0.157 0.383-0.274 0.23-0.235 0.306-0.353l-0.536-0.392c-0.268 0.392-0.689 0.588-1.111 0.588-0.192 0-0.383-0.039-0.575-0.118-0.153-0.078-0.306-0.157-0.46-0.314-0.115-0.118-0.23-0.314-0.306-0.47-0.153-0.392-0.153-0.823 0-1.215 0.115-0.196 0.23-0.353 0.345-0.51z"></path>
<path fill="#b1b1b1" style="fill: var(--color1, #b1b1b1)" d="M16.978 12.292c-0.115-0.118-0.268-0.235-0.421-0.314s-0.345-0.118-0.536-0.118c-0.191 0-0.383 0.039-0.575 0.118s-0.345 0.196-0.46 0.314c-0.115 0.157-0.23 0.314-0.306 0.47-0.077 0.196-0.115 0.392-0.115 0.627 0 0.196 0.038 0.431 0.115 0.627s0.153 0.353 0.306 0.47c0.115 0.118 0.306 0.235 0.46 0.314 0.192 0.078 0.383 0.118 0.613 0.118 0.192 0 0.421-0.039 0.613-0.078 0.192-0.078 0.383-0.157 0.536-0.314l-0.306-0.431c-0.057 0.039-0.124 0.078-0.192 0.118s-0.134 0.078-0.192 0.118c-0.153 0.039-0.306 0.078-0.421 0.078s-0.191 0-0.306-0.039c-0.023-0.017-0.046-0.035-0.070-0.052-0.137-0.102-0.286-0.212-0.351-0.379-0.077-0.078-0.115-0.196-0.115-0.314h2.107v-0.235c0-0.196-0.038-0.431-0.115-0.627-0.038-0.157-0.115-0.353-0.268-0.47zM15.254 13.154c0-0.118 0.038-0.196 0.077-0.274s0.077-0.157 0.153-0.235c0.077-0.078 0.153-0.118 0.23-0.157s0.192-0.039 0.306-0.039c0.192 0 0.345 0.078 0.498 0.196 0.115 0.157 0.23 0.314 0.23 0.51h-1.494z"></path>
<path fill="#b1b1b1" style="fill: var(--color1, #b1b1b1)" d="M13.76 14.252c-0.077 0.039-0.192 0.039-0.306 0.039-0.077 0-0.115 0-0.192-0.039-0.019-0.020-0.048-0.029-0.077-0.039s-0.057-0.020-0.077-0.039c-0.019-0.020-0.038-0.049-0.057-0.078s-0.038-0.059-0.057-0.078c-0.038-0.078-0.038-0.157-0.038-0.235v-1.254h1.149v-0.588h-1.111v-0.862h-0.613v0.862h-0.575v0.588h0.575v1.254c-0.038 0.314 0.077 0.627 0.268 0.862 0.191 0.196 0.46 0.274 0.766 0.274 0.153 0 0.345-0.039 0.498-0.078s0.268-0.118 0.383-0.196l-0.268-0.51c-0.077 0.039-0.153 0.078-0.268 0.118z"></path>
<path fill="#b1b1b1" style="fill: var(--color1, #b1b1b1)" d="M21.038 12.723c0.077-0.078 0.153-0.157 0.268-0.196s0.23-0.078 0.345-0.078c0.115 0 0.268 0.039 0.383 0.078s0.23 0.118 0.306 0.235l0.383-0.431c-0.115-0.157-0.268-0.274-0.46-0.353s-0.383-0.118-0.613-0.118c-0.192 0-0.421 0.039-0.613 0.118-0.345 0.157-0.651 0.431-0.766 0.784-0.153 0.392-0.153 0.823 0 1.215 0.153 0.353 0.421 0.666 0.766 0.784 0.192 0.078 0.421 0.118 0.613 0.118s0.421-0.039 0.613-0.118c0.192-0.078 0.345-0.196 0.46-0.353l-0.383-0.431c-0.077 0.078-0.192 0.157-0.306 0.235-0.115 0.039-0.268 0.078-0.383 0.078s-0.23-0.039-0.345-0.078c-0.115-0.039-0.192-0.118-0.268-0.196s-0.153-0.196-0.192-0.274c-0.077-0.235-0.077-0.51 0-0.745 0.021-0.031 0.038-0.060 0.055-0.087 0.045-0.073 0.081-0.13 0.137-0.188z"></path>
<path fill="#b1b1b1" style="fill: var(--color1, #b1b1b1)" d="M3.724 10.607l-1.226 3.018-1.187-3.018h-1.034v4.233h0.689v-3.449l1.226 3.018h0.728l1.226-3.057v3.488h0.689v-4.233h-1.111z"></path>
<path fill="#b1b1b1" style="fill: var(--color1, #b1b1b1)" d="M7.67 12.292c-0.115-0.118-0.23-0.235-0.383-0.314s-0.345-0.118-0.536-0.118c-0.575 0-1.111 0.353-1.302 0.901-0.153 0.392-0.153 0.823 0 1.215 0.077 0.196 0.153 0.353 0.306 0.47 0.268 0.274 0.651 0.431 0.996 0.431 0.192 0 0.345-0.039 0.536-0.118 0.153-0.078 0.268-0.196 0.383-0.314v0.353h0.613v-2.861h-0.613v0.353zM7.67 13.742c-0.077 0.235-0.268 0.392-0.46 0.51-0.23 0.078-0.498 0.078-0.728 0-0.115-0.039-0.191-0.118-0.268-0.196s-0.115-0.196-0.153-0.314-0.077-0.47 0-0.706c0.077-0.235 0.23-0.392 0.421-0.51 0.115-0.039 0.23-0.078 0.345-0.078 0.345 0 0.689 0.196 0.804 0.549 0.115 0.274 0.115 0.51 0.038 0.745z"></path>
<path fill="#b1b1b1" style="fill: var(--color1, #b1b1b1)" d="M11.232 13.39c-0.23-0.157-0.46-0.235-0.728-0.274-0.026-0.003-0.062-0.006-0.104-0.010-0.245-0.020-0.701-0.057-0.701-0.304 0-0.543 1.154-0.308 1.417-0.039l0.306-0.588c-0.651-0.5-2.375-0.512-2.375 0.627 0 0.235 0.077 0.431 0.23 0.549 0.191 0.157 0.46 0.274 0.728 0.274l0.306 0.039c0.115 0 0.268 0.039 0.383 0.118 0.077 0.039 0.115 0.118 0.115 0.196 0 0.118-0.077 0.196-0.153 0.274-0.378 0.193-1.106 0.083-1.417-0.235l-0.268 0.51c0.034 0.023 0.065 0.047 0.095 0.069 0.069 0.053 0.131 0.099 0.212 0.127 0.191 0.078 0.421 0.157 0.651 0.157h0.268c0.191 0 0.383-0.039 0.536-0.078 0.114-0.029 0.206-0.080 0.309-0.136 0.036-0.020 0.073-0.040 0.112-0.060 0.115-0.078 0.192-0.157 0.268-0.274s0.077-0.235 0.077-0.392c0-0.196-0.115-0.431-0.268-0.549z"></path>
<path fill="#b1b1b1" style="fill: var(--color1, #b1b1b1)" d="M18.702 12.253v-0.314h-0.613v2.9h0.613v-1.607c0-0.118 0-0.235 0.038-0.314 0.221-0.452 0.691-0.528 1.111-0.314l0.153-0.627c-0.395-0.202-1.083-0.174-1.302 0.274z"></path>
<path fill="#b1b1b1" style="fill: var(--color1, #b1b1b1)" d="M25.405 12.292c-0.115-0.118-0.23-0.235-0.383-0.314s-0.345-0.118-0.536-0.118c-0.575 0-1.111 0.353-1.302 0.901-0.153 0.392-0.153 0.823 0 1.215 0.077 0.196 0.192 0.353 0.306 0.47 0.268 0.274 0.651 0.431 0.996 0.431 0.192 0 0.345-0.039 0.536-0.118 0.153-0.078 0.268-0.196 0.383-0.314v0.353h0.613v-2.861h-0.613v0.353zM25.405 13.742c-0.077 0.235-0.23 0.392-0.46 0.47s-0.498 0.078-0.728 0c-0.115-0.039-0.192-0.118-0.268-0.196s-0.115-0.196-0.153-0.314-0.077-0.47 0-0.706c0.077-0.235 0.23-0.392 0.421-0.51 0.115-0.039 0.23-0.078 0.345-0.078 0.345 0 0.689 0.196 0.804 0.549 0.115 0.314 0.115 0.549 0.038 0.784z"></path>
<path fill="#b1b1b1" style="fill: var(--color1, #b1b1b1)" d="M28.201 11.851c-0.153 0-0.345 0.039-0.498 0.078-0.153 0.078-0.268 0.157-0.345 0.314v-0.314h-0.613v2.9h0.613v-1.607c0-0.118 0-0.235 0.038-0.314s0.077-0.157 0.153-0.235c0.077-0.078 0.153-0.118 0.23-0.157s0.192-0.039 0.268-0.039c0.077 0 0.153 0 0.23 0.039 0.077 0 0.153 0.039 0.23 0.078l0.153-0.627c-0.038-0.020-0.077-0.029-0.115-0.039s-0.077-0.020-0.115-0.039c-0.077-0.039-0.153-0.039-0.23-0.039z"></path>
<path fill="#b1b1b1" style="fill: var(--color1, #b1b1b1)" d="M30.423 11.939c0.345-0.039 0.689 0.118 0.881 0.392v-1.725h0.613v4.194h-0.651v-0.353c-0.077 0.157-0.192 0.235-0.345 0.314s-0.306 0.118-0.498 0.118c-0.345 0-0.689-0.157-0.958-0.431-0.132-0.101-0.207-0.26-0.274-0.402-0.011-0.023-0.022-0.046-0.032-0.068-0.153-0.392-0.153-0.784 0-1.176 0.192-0.51 0.689-0.862 1.264-0.862zM31.167 13.927c0.035-0.053 0.074-0.111 0.098-0.185 0.077-0.196 0.077-0.47 0-0.706-0.009-0.019-0.018-0.039-0.028-0.061-0.031-0.071-0.067-0.153-0.126-0.213-0.077-0.078-0.153-0.157-0.268-0.196s-0.23-0.078-0.345-0.078c-0.115 0-0.23 0.039-0.345 0.078-0.192 0.078-0.345 0.274-0.421 0.47-0.077 0.235-0.077 0.47 0 0.706 0.077 0.196 0.23 0.392 0.421 0.47 0.23 0.078 0.46 0.078 0.689 0 0.115-0.039 0.192-0.118 0.268-0.196 0.014-0.029 0.034-0.058 0.055-0.090z"></path>
</symbol>
<symbol id="icon-response-icon" viewBox="0 0 32 32">
<path fill="#535353" style="fill: var(--color5, #535353)" d="M16.762 0.762c-2.001 0-3.983 0.394-5.831 1.16s-3.529 1.888-4.944 3.303c-2.858 2.858-4.463 6.734-4.463 10.775-0.013 3.519 1.205 6.931 3.444 9.646l-3.048 3.048c-0.211 0.214-0.355 0.486-0.412 0.782s-0.025 0.601 0.092 0.879c0.127 0.274 0.332 0.505 0.589 0.662s0.556 0.235 0.858 0.222h13.714c4.041 0 7.917-1.605 10.775-4.463s4.463-6.734 4.463-10.775c0-4.041-1.605-7.917-4.463-10.775s-6.734-4.463-10.775-4.463v0zM16.762 28.19h-10.042l1.417-1.417c0.284-0.286 0.443-0.672 0.443-1.074s-0.159-0.789-0.443-1.074c-1.995-1.993-3.238-4.616-3.516-7.423s0.426-5.623 1.991-7.968 3.896-4.076 6.594-4.897c2.698-0.82 5.597-0.68 8.204 0.398s4.758 3.025 6.089 5.512c1.331 2.486 1.759 5.357 1.211 8.124s-2.039 5.257-4.217 7.048c-2.179 1.791-4.911 2.771-7.731 2.773v0z"></path>
</symbol>
<symbol id="icon-sale" viewBox="0 0 32 32">
<path fill="#ffbc57" style="fill: var(--color2, #ffbc57)" d="M27.319 4.681c-6.242-6.241-16.396-6.241-22.638 0s-6.241 16.396 0 22.638c3.121 3.121 7.22 4.681 11.319 4.681s8.198-1.561 11.319-4.681c6.241-6.241 6.241-16.396 0-22.638zM10.305 7.53c0.591-0.591 1.378-0.917 2.215-0.917s1.624 0.326 2.216 0.918c0.591 0.591 0.917 1.378 0.917 2.214s-0.326 1.623-0.918 2.215c-0.591 0.592-1.378 0.917-2.215 0.917s-1.623-0.326-2.215-0.917c-0.592-0.592-0.918-1.378-0.918-2.215s0.326-1.623 0.918-2.215zM10.831 22.645c-0.204 0.204-0.471 0.306-0.738 0.306s-0.534-0.102-0.738-0.306c-0.408-0.407-0.408-1.069-0-1.477l11.814-11.814c0.408-0.408 1.069-0.408 1.477 0s0.408 1.069 0 1.477l-11.814 11.814zM22.391 23.784c-0.591 0.591-1.378 0.917-2.215 0.917s-1.624-0.326-2.215-0.918c-0.591-0.591-0.917-1.378-0.917-2.215s0.326-1.623 0.918-2.215c0.591-0.591 1.378-0.917 2.215-0.917s1.624 0.326 2.215 0.918c0.591 0.591 0.917 1.378 0.917 2.214s-0.326 1.623-0.918 2.215z"></path>
</symbol>
<symbol id="icon-service-icon" viewBox="0 0 32 32">
<path fill="#ffbc57" style="fill: var(--color2, #ffbc57)" d="M24.927 16.339c3.273 0 5.926-2.653 5.926-5.926s-2.653-5.926-5.926-5.926c-3.273 0-5.926 2.653-5.926 5.926s2.653 5.926 5.926 5.926z"></path>
<path fill="#ffbc57" style="fill: var(--color2, #ffbc57)" d="M8.673 10.159c2.805 0 5.079-2.274 5.079-5.079s-2.274-5.079-5.079-5.079c-2.805 0-5.079 2.274-5.079 5.079s2.274 5.079 5.079 5.079z"></path>
<path fill="#ffbc57" style="fill: var(--color2, #ffbc57)" d="M9.266 32c4.675 0 8.466-3.79 8.466-8.466s-3.79-8.466-8.466-8.466c-4.675 0-8.466 3.79-8.466 8.466s3.79 8.466 8.466 8.466z"></path>
<path fill="#fff" style="fill: var(--color3, #fff)" d="M15.742 9.354c-2.794 0.339-5.079 2.582-5.46 5.333-0.212 1.481 0.085 2.878 0.762 4.064l-0.847 3.259 3.259-0.804c1.185 0.677 2.582 0.974 4.063 0.762 2.794-0.423 4.995-2.667 5.333-5.46 0.508-4.19-2.963-7.661-7.111-7.153z"></path>
<path fill="#2b2929" style="fill: var(--color4, #2b2929)" d="M16.546 22.349c-1.101 0-2.159-0.254-3.132-0.804l-3.132 0.762c-0.127 0.042-0.212 0-0.296-0.085s-0.127-0.212-0.085-0.296l0.762-3.132c-0.677-1.27-0.931-2.709-0.72-4.148 0.423-2.963 2.794-5.249 5.757-5.63 2.074-0.254 4.106 0.423 5.545 1.905 1.481 1.481 2.159 3.471 1.905 5.545-0.381 2.963-2.667 5.333-5.63 5.757-0.296 0.085-0.635 0.127-0.974 0.127zM13.456 20.868c0.042 0 0.127 0 0.169 0.042 1.185 0.677 2.497 0.889 3.852 0.72 2.667-0.381 4.741-2.54 5.079-5.206 0.212-1.862-0.381-3.725-1.735-5.037-1.312-1.312-3.175-1.947-5.037-1.735-2.667 0.339-4.825 2.413-5.206 5.079-0.212 1.354 0.042 2.667 0.72 3.852 0.042 0.085 0.042 0.169 0.042 0.212l-0.677 2.794 2.751-0.677c0-0.042 0.042-0.042 0.042-0.042z"></path>
<path fill="#ffbc57" style="fill: var(--color2, #ffbc57)" d="M16.546 17.735c-0.169 0-0.339-0.127-0.339-0.339v-0.254c0-1.016 0.593-1.481 1.058-1.82 0.423-0.296 0.72-0.55 0.72-1.143 0-0.677-0.423-1.228-1.016-1.397-0.466-0.127-0.974-0.042-1.355 0.212-0.381 0.296-0.593 0.72-0.593 1.185 0 0.169-0.127 0.339-0.339 0.339-0.169 0-0.339-0.127-0.339-0.339 0-0.677 0.339-1.312 0.847-1.693 0.55-0.423 1.228-0.508 1.905-0.339 0.889 0.254 1.481 1.058 1.481 2.032 0 0.931-0.55 1.312-1.016 1.651-0.423 0.339-0.804 0.593-0.804 1.312v0.254c0.127 0.212 0 0.339-0.212 0.339z"></path>
<path fill="#ffbc57" style="fill: var(--color2, #ffbc57)" d="M16.842 18.963c-0.169-0.169-0.423-0.169-0.593 0-0.085 0.085-0.127 0.169-0.127 0.296s0.042 0.212 0.127 0.296c0.085 0.085 0.169 0.127 0.296 0.127s0.212-0.042 0.296-0.127c0.085-0.085 0.127-0.169 0.127-0.296s-0.042-0.254-0.127-0.296z"></path>
<path fill="#2b2929" style="fill: var(--color4, #2b2929)" d="M16.546 28.36c-0.169 0-0.339-0.127-0.339-0.339 0-0.169 0.127-0.339 0.339-0.339 6.603 0 11.979-5.376 11.979-11.979 0-6.519-5.376-11.894-11.979-11.894-6.561 0-11.937 5.376-11.937 11.937 0 0.212-0.127 0.339-0.339 0.339-0.169 0-0.339-0.127-0.339-0.339 0-6.942 5.63-12.614 12.571-12.614s12.656 5.672 12.656 12.614c0 6.942-5.672 12.614-12.614 12.614z"></path>
<path fill="#fff" style="fill: var(--color3, #fff)" d="M17.816 29.291h-2.54c-0.931 0-1.693-0.762-1.693-1.693s0.762-1.693 1.693-1.693h2.54c0.931 0 1.693 0.762 1.693 1.693 0 0.974-0.72 1.693-1.693 1.693z"></path>
<path fill="#2b2929" style="fill: var(--color4, #2b2929)" d="M17.816 29.63h-2.54c-1.101 0-2.032-0.889-2.032-2.032 0-1.101 0.889-2.032 2.032-2.032h2.54c1.101 0 2.032 0.889 2.032 2.032s-0.889 2.032-2.032 2.032zM15.276 26.243c-0.762 0-1.397 0.635-1.397 1.397s0.635 1.397 1.397 1.397h2.54c0.762 0 1.397-0.635 1.397-1.397s-0.635-1.397-1.397-1.397h-2.54z"></path>
<path fill="#fff" style="fill: var(--color3, #fff)" d="M6.387 20.402c-1.862 0-3.386-1.524-3.386-3.386v-2.54c0-1.862 1.524-3.386 3.386-3.386 0.466 0 0.847 0.381 0.847 0.847v7.619c0 0.508-0.381 0.847-0.847 0.847z"></path>
<path fill="#2b2929" style="fill: var(--color4, #2b2929)" d="M6.387 20.741c-2.032 0-3.725-1.651-3.725-3.725v-2.54c0-2.032 1.651-3.725 3.725-3.725 0.635 0 1.185 0.508 1.185 1.185v7.619c0 0.677-0.508 1.185-1.185 1.185zM6.387 11.429c-1.693 0-3.090 1.397-3.090 3.090v2.54c0 1.693 1.397 3.090 3.090 3.090 0.296 0 0.55-0.254 0.55-0.55v-7.619c0-0.296-0.254-0.55-0.55-0.55z"></path>
<path fill="#2b2929" style="fill: var(--color4, #2b2929)" d="M5.117 18.624c-0.169 0-0.339-0.127-0.339-0.339v-5.079c0-0.169 0.127-0.339 0.339-0.339 0.169 0 0.339 0.127 0.339 0.339v5.079c0 0.212-0.127 0.339-0.339 0.339z"></path>
<path fill="#fff" style="fill: var(--color3, #fff)" d="M26.705 20.402c-0.466 0-0.847-0.381-0.847-0.847v-7.619c0-0.466 0.381-0.847 0.847-0.847 1.862 0 3.386 1.524 3.386 3.386v2.54c0 1.905-1.481 3.386-3.386 3.386z"></path>
<path fill="#2b2929" style="fill: var(--color4, #2b2929)" d="M26.705 20.741c-0.635 0-1.143-0.508-1.143-1.185v-7.619c0-0.635 0.508-1.185 1.143-1.185 2.032 0 3.725 1.651 3.725 3.725v2.54c0 2.074-1.651 3.725-3.725 3.725zM26.705 11.429c-0.296 0-0.508 0.254-0.508 0.55v7.619c0 0.296 0.254 0.55 0.508 0.55 1.693 0 3.090-1.397 3.090-3.090v-2.54c0-1.735-1.397-3.090-3.090-3.090z"></path>
<path fill="#2b2929" style="fill: var(--color4, #2b2929)" d="M27.975 18.624c-0.169 0-0.339-0.127-0.339-0.339v-5.079c0-0.169 0.127-0.339 0.339-0.339 0.169 0 0.339 0.127 0.339 0.339v5.079c0 0.212-0.127 0.339-0.339 0.339z"></path>
<path fill="#ffbc57" style="fill: var(--color2, #ffbc57)" d="M9.393 7.407c0.042-0.042 0.042 0 0 0-0.085 0.042-0.212 0.127-0.339 0.169 0.169-0.042 0.254-0.085 0.339-0.169z"></path>
<path fill="#fff" style="fill: var(--color3, #fff)" d="M16.546 2.201c-3.386 0-6.476 1.228-8.847 3.302-0.423 0.339-0.423 0.974-0.042 1.354l0.508 0.508c0.339 0.339 0.889 0.339 1.27 0.042 1.905-1.651 4.402-2.624 7.153-2.624 2.709 0 5.249 0.974 7.153 2.624 0.381 0.296 0.931 0.296 1.27-0.042l0.508-0.508c0.381-0.381 0.381-1.016-0.042-1.354-2.413-2.032-5.545-3.302-8.931-3.302z"></path>
<path fill="#2b2929" style="fill: var(--color4, #2b2929)" d="M24.334 7.958c-0.296 0-0.593-0.085-0.804-0.296-1.947-1.693-4.402-2.582-6.984-2.582-2.54 0-4.995 0.931-6.942 2.582-0.508 0.423-1.228 0.423-1.693-0.042l-0.508-0.508c-0.254-0.254-0.381-0.593-0.381-0.931s0.169-0.677 0.423-0.889c2.497-2.159 5.714-3.386 9.058-3.386s6.561 1.185 9.058 3.386c0.254 0.212 0.423 0.55 0.423 0.889s-0.127 0.677-0.381 0.931l-0.508 0.508c-0.127 0.212-0.466 0.339-0.762 0.339zM16.546 4.444c2.709 0 5.291 0.974 7.365 2.709 0.254 0.212 0.593 0.212 0.847-0.042l0.508-0.508c0.127-0.127 0.169-0.296 0.169-0.466s-0.085-0.339-0.212-0.423c-2.413-2.032-5.503-3.175-8.677-3.175s-6.265 1.143-8.635 3.217c-0.127 0.127-0.212 0.254-0.212 0.423s0.042 0.339 0.169 0.466l0.508 0.508c0.212 0.212 0.593 0.254 0.847 0.042 2.032-1.778 4.656-2.751 7.323-2.751z"></path>
</symbol>
<symbol id="icon-star" viewBox="0 0 32 32">
<path fill="#ffbc57" style="fill: var(--color2, #ffbc57)" d="M29.333 12.855c0.133-0.667-0.4-1.467-1.067-1.467l-7.6-1.067-3.467-6.933c-0.133-0.267-0.267-0.4-0.533-0.533-0.667-0.4-1.467-0.133-1.867 0.533l-3.333 6.933-7.6 1.067c-0.4 0-0.667 0.133-0.8 0.4-0.533 0.533-0.533 1.333 0 1.867l5.467 5.333-1.333 7.6c0 0.267 0 0.533 0.133 0.8 0.4 0.667 1.2 0.933 1.867 0.533l6.8-3.6 6.8 3.6c0.133 0.133 0.4 0.133 0.667 0.133 0.133 0 0.133 0 0.267 0 0.667-0.133 1.2-0.8 1.067-1.6l-1.333-7.6 5.467-5.333c0.267-0.133 0.4-0.4 0.4-0.667z"></path>
</symbol>
<symbol id="icon-tel-icon" viewBox="0 0 32 32">
<path fill="none" opacity="0.2" stroke="#b1b1b1" style="stroke: var(--color1, #b1b1b1)" stroke-linejoin="miter" stroke-linecap="butt" stroke-miterlimit="4" stroke-width="1.28" d="M31.36 16c0 8.483-6.877 15.36-15.36 15.36s-15.36-6.877-15.36-15.36c0-8.483 6.877-15.36 15.36-15.36s15.36 6.877 15.36 15.36z"></path>
<path fill="#b1b1b1" style="fill: var(--color1, #b1b1b1)" d="M20.101 16.64c-0.141 0-0.288-0.045-0.429-0.077-0.285-0.064-0.565-0.147-0.838-0.25-0.297-0.108-0.623-0.102-0.916 0.016s-0.532 0.34-0.671 0.624l-0.141 0.294c-0.622-0.352-1.196-0.783-1.709-1.28-0.497-0.513-0.928-1.087-1.28-1.709l0.294-0.134c0.284-0.139 0.506-0.378 0.624-0.671s0.124-0.619 0.016-0.916c-0.102-0.276-0.185-0.558-0.25-0.845-0.032-0.141-0.058-0.288-0.077-0.429-0.078-0.451-0.314-0.859-0.666-1.151s-0.797-0.449-1.254-0.442h-1.926c-0.271-0-0.538 0.056-0.785 0.167s-0.468 0.272-0.648 0.473c-0.184 0.207-0.321 0.452-0.402 0.717s-0.103 0.545-0.065 0.819c0.348 2.664 1.565 5.138 3.462 7.040 1.902 1.897 4.376 3.114 7.040 3.462 0.083 0.006 0.167 0.006 0.25 0 0.472 0.001 0.928-0.172 1.28-0.486 0.202-0.18 0.363-0.401 0.473-0.648s0.167-0.515 0.167-0.785v-1.92c-0.003-0.442-0.159-0.87-0.442-1.21s-0.673-0.573-1.107-0.659zM20.415 20.48c-0 0.089-0.019 0.178-0.055 0.259s-0.089 0.155-0.156 0.214c-0.070 0.064-0.154 0.111-0.244 0.139s-0.187 0.035-0.28 0.021c-2.388-0.312-4.608-1.4-6.317-3.098-1.71-1.71-2.808-3.938-3.123-6.336-0.014-0.094-0.007-0.19 0.021-0.28s0.075-0.174 0.139-0.244c0.061-0.067 0.135-0.121 0.217-0.157s0.172-0.055 0.263-0.054h1.92c0.148-0.004 0.293 0.044 0.409 0.135s0.198 0.22 0.231 0.364c0 0.173 0.058 0.352 0.096 0.525 0.074 0.335 0.172 0.665 0.294 0.986l-0.896 0.422c-0.154 0.071-0.274 0.2-0.333 0.358-0.064 0.156-0.064 0.331 0 0.486 0.921 1.973 2.507 3.559 4.48 4.48 0.156 0.064 0.331 0.064 0.486 0 0.159-0.059 0.288-0.179 0.358-0.333l0.403-0.896c0.33 0.12 0.668 0.219 1.011 0.294 0.166 0.038 0.346 0.070 0.518 0.096 0.144 0.032 0.273 0.114 0.364 0.231s0.139 0.261 0.135 0.409l0.058 1.978zM16.639 9.6c-0.147 0-0.301 0-0.448 0-0.17 0.014-0.327 0.096-0.437 0.226s-0.163 0.299-0.149 0.468c0.014 0.17 0.096 0.327 0.226 0.437s0.299 0.163 0.468 0.149h0.339c1.018 0 1.995 0.405 2.715 1.125s1.125 1.697 1.125 2.715c0 0.115 0 0.224 0 0.339-0.014 0.169 0.039 0.336 0.148 0.466s0.265 0.211 0.434 0.225h0.051c0.16 0.001 0.315-0.059 0.433-0.167s0.192-0.256 0.207-0.416c0-0.147 0-0.301 0-0.448 0-1.357-0.539-2.658-1.497-3.618s-2.259-1.5-3.616-1.502zM17.919 14.72c0 0.17 0.067 0.333 0.187 0.453s0.283 0.187 0.453 0.187 0.333-0.067 0.453-0.187c0.12-0.12 0.187-0.283 0.187-0.453 0-0.679-0.27-1.33-0.75-1.81s-1.131-0.75-1.81-0.75c-0.17 0-0.332 0.067-0.453 0.187s-0.187 0.283-0.187 0.453 0.067 0.333 0.187 0.453c0.12 0.12 0.283 0.187 0.453 0.187 0.34 0 0.665 0.135 0.905 0.375s0.375 0.566 0.375 0.905z"></path>
</symbol>
<symbol id="icon-telegram" viewBox="0 0 32 32">
<path fill="#40b3e0" style="fill: var(--color12, #40b3e0)" d="M16 0c-8.837 0-16 7.163-16 16s7.163 16 16 16c8.837 0 16-7.163 16-16s-7.163-16-16-16z"></path>
<path fill="#fff" style="fill: var(--color3, #fff)" d="M23.785 9.204l-2.858 14.408c0 0-0.4 0.999-1.499 0.52l-6.595-5.056-2.398-1.159-4.037-1.359c0 0-0.62-0.22-0.679-0.699s0.699-0.739 0.699-0.739l16.047-6.295c0 0 1.319-0.579 1.319 0.38z"></path>
<path fill="#d2e5f1" style="fill: var(--color13, #d2e5f1)" d="M12.327 23.45c0 0-0.193-0.018-0.432-0.777s-1.459-4.756-1.459-4.756l9.692-6.155c0 0 0.56-0.34 0.54 0 0 0 0.1 0.060-0.2 0.34s-7.614 6.854-7.614 6.854z"></path>
<path fill="#b5cfe4" style="fill: var(--color14, #b5cfe4)" d="M15.363 21.014l-2.608 2.378c0 0-0.204 0.155-0.427 0.058l0.5-4.418z"></path>
</symbol>
<symbol id="icon-viber" viewBox="0 0 32 32">
<path fill="#6f3faa" style="fill: var(--color15, #6f3faa)" d="M16 32c8.837 0 16-7.163 16-16s-7.163-16-16-16c-8.837 0-16 7.163-16 16s7.163 16 16 16z"></path>
<path fill="#fff" style="fill: var(--color3, #fff)" d="M24.464 11.245l-0.005-0.021c-0.428-1.728-2.355-3.583-4.125-3.969l-0.020-0.004c-2.863-0.546-5.766-0.546-8.628 0l-0.021 0.004c-1.769 0.386-3.697 2.24-4.125 3.969l-0.005 0.021c-0.529 2.414-0.529 4.861 0 7.275l0.005 0.021c0.41 1.654 2.194 3.424 3.898 3.91v1.929c0 0.698 0.851 1.041 1.335 0.537l1.955-2.032c0.424 0.024 0.848 0.037 1.272 0.037 1.441 0 2.883-0.136 4.314-0.409l0.020-0.004c1.77-0.386 3.697-2.24 4.125-3.969l0.005-0.021c0.528-2.414 0.528-4.861 0-7.275zM22.917 18.17c-0.285 1.128-1.749 2.529-2.912 2.788-1.522 0.29-3.057 0.413-4.589 0.371-0.030-0.001-0.060 0.011-0.081 0.033-0.217 0.223-1.427 1.465-1.427 1.465l-1.518 1.558c-0.111 0.116-0.306 0.037-0.306-0.123v-3.196c0-0.053-0.038-0.098-0.089-0.108-0-0-0.001-0-0.001-0-1.163-0.259-2.626-1.661-2.912-2.788-0.476-2.182-0.476-4.393 0-6.575 0.286-1.127 1.749-2.529 2.912-2.788 2.658-0.506 5.354-0.506 8.012 0 1.163 0.259 2.626 1.661 2.911 2.788 0.476 2.182 0.476 4.393 0 6.575z"></path>
<path fill="#fff" style="fill: var(--color3, #fff)" d="M18.529 19.645c-0.179-0.054-0.349-0.091-0.507-0.156-1.639-0.68-3.148-1.558-4.343-2.903-0.68-0.765-1.212-1.628-1.661-2.542-0.213-0.433-0.393-0.884-0.576-1.331-0.167-0.408 0.079-0.829 0.338-1.137 0.243-0.289 0.556-0.509 0.895-0.672 0.264-0.127 0.525-0.054 0.718 0.17 0.417 0.485 0.801 0.994 1.111 1.555 0.191 0.345 0.139 0.768-0.207 1.003-0.084 0.057-0.161 0.124-0.239 0.189-0.069 0.057-0.133 0.114-0.18 0.19-0.086 0.14-0.090 0.305-0.035 0.458 0.427 1.172 1.146 2.084 2.326 2.576 0.189 0.079 0.378 0.17 0.596 0.145 0.364-0.043 0.482-0.442 0.738-0.651 0.25-0.204 0.569-0.207 0.837-0.037s0.53 0.353 0.789 0.538c0.254 0.181 0.508 0.358 0.742 0.565 0.226 0.199 0.303 0.459 0.176 0.729-0.233 0.494-0.571 0.905-1.059 1.167-0.138 0.074-0.302 0.098-0.458 0.146 0.155-0.048-0.179-0.054 0 0z"></path>
<path fill="#fff" style="fill: var(--color3, #fff)" d="M16.004 10.339c2.144 0.060 3.906 1.483 4.283 3.603 0.064 0.361 0.087 0.731 0.116 1.097 0.012 0.154-0.075 0.301-0.242 0.303-0.172 0.002-0.249-0.142-0.26-0.296-0.022-0.305-0.037-0.612-0.079-0.914-0.222-1.597-1.496-2.919-3.086-3.203-0.239-0.043-0.484-0.054-0.727-0.079-0.153-0.016-0.354-0.025-0.388-0.216-0.028-0.16 0.106-0.287 0.258-0.295 0.041-0.002 0.083-0.001 0.124-0 2.144 0.060-0.041-0 0 0z"></path>
<path fill="#fff" style="fill: var(--color3, #fff)" d="M19.263 14.564c-0.004 0.027-0.005 0.090-0.021 0.149-0.057 0.215-0.383 0.242-0.458 0.025-0.022-0.064-0.026-0.138-0.026-0.207-0.001-0.454-0.099-0.908-0.328-1.303-0.236-0.406-0.595-0.748-1.017-0.954-0.255-0.125-0.531-0.203-0.811-0.249-0.122-0.020-0.246-0.032-0.368-0.050-0.149-0.021-0.228-0.116-0.221-0.262 0.007-0.137 0.107-0.236 0.257-0.228 0.492 0.028 0.967 0.134 1.405 0.366 0.89 0.471 1.398 1.215 1.546 2.208 0.007 0.045 0.017 0.089 0.021 0.135 0.008 0.111 0.014 0.223 0.022 0.37-0.004 0.027-0.009-0.147 0 0z"></path>
<path fill="#fff" style="fill: var(--color3, #fff)" d="M17.93 14.512c-0.179 0.003-0.275-0.096-0.294-0.261-0.013-0.115-0.023-0.231-0.050-0.342-0.054-0.22-0.171-0.423-0.356-0.558-0.087-0.064-0.186-0.11-0.29-0.14-0.132-0.038-0.268-0.028-0.399-0.060-0.142-0.035-0.221-0.15-0.199-0.284 0.020-0.122 0.139-0.217 0.272-0.207 0.831 0.060 1.425 0.49 1.51 1.469 0.006 0.069 0.013 0.142-0.002 0.208-0.026 0.113-0.11 0.17-0.192 0.175 0.082-0.006-0.179 0.003 0 0z"></path>
<path fill="#fff" style="fill: var(--color3, #fff)" d="M18.529 19.645c-0.179-0.054 0.155-0.048 0 0v0z"></path>
<path fill="#fff" style="fill: var(--color3, #fff)" d="M16.010 10.339c-0.002 0-0.004-0-0.005-0s0.001 0 0.005 0z"></path>
<path fill="#fff" style="fill: var(--color3, #fff)" d="M16.005 10.339c0.002 0 0.004 0 0.005 0 0.119 0.004 2.055 0.058-0.005-0z"></path>
<path fill="#fff" style="fill: var(--color3, #fff)" d="M19.263 14.564c-0.008-0.147-0.004 0.027 0 0v0z"></path>
<path fill="#fff" style="fill: var(--color3, #fff)" d="M17.93 14.512c0.003-0 0.006-0.002 0.008-0.002-0.008 0-0.019 0-0.031 0.001 0.008 0 0.015 0.001 0.023 0.001z"></path>
<path fill="#fff" style="fill: var(--color3, #fff)" d="M17.93 14.512c-0.008 0-0.015-0.001-0.023-0.001-0.039 0.001-0.079 0.003 0.023 0.001z"></path>
<path fill="#fff" style="fill: var(--color3, #fff)" d="M17.938 14.51c-0.003 0-0.005 0.002-0.008 0.002 0.021-0.002 0.019-0.002 0.008-0.002z"></path>
</symbol>
<symbol id="icon-visa-icon" viewBox="0 0 32 32">
<path fill="#b1b1b1" style="fill: var(--color1, #b1b1b1)" d="M12.762 16.007l-1.609 4.031-0.157-0.835c-0.393-1.017-1.256-2.070-2.276-2.47l1.491 5.194h1.727l2.59-5.92h-1.766zM14.136 21.927l1.020-5.92h1.648l-1.020 5.92h-1.648zM23.947 19.82c0.118-0.327 0.667-1.671 0.667-1.671s0.118-0.327 0.235-0.581l0.118 0.508 0.392 1.707h-1.413v0.036zM25.949 16.007h-1.256c-0.392 0-0.706 0.109-0.863 0.508l-2.433 5.412h1.727c0 0 0.275-0.726 0.353-0.908 0.196 0 1.884 0 2.119 0 0.039 0.218 0.196 0.872 0.196 0.872h1.531c-0.039 0.036-1.374-5.884-1.374-5.884zM21.749 16.152c-0.314-0.109-0.824-0.254-1.491-0.254-1.609 0-2.786 0.799-2.786 1.961 0 0.835 0.824 1.344 1.452 1.598 0.628 0.291 0.863 0.472 0.863 0.726 0 0.4-0.51 0.581-0.981 0.581-0.667 0-1.020-0.073-1.531-0.327l-0.236-0.073-0.236 1.308c0.392 0.182 1.099 0.291 1.845 0.327 1.727 0 2.865-0.799 2.865-2.034 0-0.69-0.432-1.198-1.374-1.598-0.589-0.291-0.942-0.472-0.903-0.726 0-0.254 0.314-0.509 0.942-0.509 0.432 0 0.863 0.073 1.217 0.218l0.157 0.073c-0.039 0 0.196-1.271 0.196-1.271z"></path>
<path fill="#b1b1b1" style="fill: var(--color1, #b1b1b1)" d="M9.661 16.007h-2.669v0.109c2.080 0.509 3.414 1.707 4.003 3.124l-0.589-2.724c-0.118-0.399-0.393-0.508-0.746-0.508z"></path>
<path fill="#b1b1b1" style="fill: var(--color1, #b1b1b1)" d="M2.048 14.591h-1.060l-1.217-5.085 1.177-0.182 0.824 3.959 2.119-3.922h1.099l-2.943 5.23zM30.305 14.7c-0.392 0.69-0.746 0.872-1.295 0.872-0.118 0-0.196 0-0.275-0.036v-0.545c0.079 0.036 0.196 0.036 0.353 0.036 0.196 0 0.392-0.109 0.51-0.291l0.078-0.182-0.628-2.688 0.785-0.109 0.353 1.961 0.981-1.889h0.746l-1.609 2.869zM27.401 12.375c-0.235 0-0.471 0.145-0.706 0.363l-0.235 1.235c0.157 0.036 0.235 0.073 0.471 0.073 0.471 0 0.785-0.254 0.903-0.872 0.078-0.545-0.118-0.799-0.432-0.799zM26.852 14.591c-0.392 0-0.785-0.073-1.177-0.182l0.628-3.85 0.746-0.109-0.275 1.671c0.236-0.182 0.51-0.363 0.903-0.363 0.628 0 1.060 0.436 0.903 1.344-0.196 1.017-0.863 1.489-1.727 1.489zM23.359 11.758c-0.236-0.109-0.392-0.145-0.746-0.145-0.51 0-0.942 0.399-1.060 1.162-0.118 0.69 0.157 1.017 0.589 1.017 0.353 0 0.667-0.182 0.981-0.508l0.236-1.525zM23.045 14.555v-0.509c-0.314 0.291-0.746 0.581-1.295 0.581-0.824 0-1.374-0.545-1.177-1.78 0.235-1.344 1.138-1.961 2.041-1.961 0.353 0 0.667 0.073 0.863 0.145l0.275-1.743 1.020-0.145-0.903 5.412h-0.824zM18.727 11.467c-0.392 0-0.746 0.291-0.903 0.872h1.531c0-0.545-0.196-0.872-0.628-0.872zM20.18 12.92h-2.512c-0.078 0.69 0.275 1.017 0.863 1.017 0.51 0 0.942-0.182 1.413-0.436v0.69c-0.471 0.254-1.020 0.436-1.648 0.436-1.099 0-1.805-0.581-1.609-1.889 0.196-1.162 1.060-1.889 2.080-1.889 1.177 0 1.57 0.835 1.374 1.852 0.078 0.073 0.039 0.182 0.039 0.218zM16.059 10.341c-0.314 0-0.549-0.218-0.51-0.508s0.353-0.508 0.667-0.508c0.314 0 0.549 0.218 0.471 0.508-0.039 0.291-0.314 0.508-0.628 0.508zM14.842 14.555l0.589-3.632h0.981l-0.589 3.632h-0.981zM14.842 9.942c-0.314 0-0.549 0.145-0.589 0.472l-0.079 0.545h0.746v0.726h-0.863l-0.471 2.869h-0.942l0.471-2.869h-0.549l0.118-0.726h0.55l0.118-0.617c0.118-0.799 0.746-1.090 1.531-1.090 0.157 0 0.314 0 0.393 0.036v0.726c-0.157-0.073-0.275-0.073-0.432-0.073zM11.781 10.341c-0.314 0-0.549-0.218-0.51-0.508s0.353-0.508 0.667-0.508c0.314 0 0.549 0.218 0.471 0.508 0 0.291-0.314 0.508-0.628 0.508zM10.603 14.555l0.589-3.632h0.981l-0.589 3.632h-0.981zM9.112 12.484l-0.353 2.070h-0.981l0.589-3.632h0.824v0.726c0.314-0.436 0.785-0.763 1.374-0.799v0.908c-0.549 0.036-1.099 0.327-1.452 0.726zM6.012 11.467c-0.393 0-0.746 0.291-0.903 0.872h1.531c0.039-0.545-0.157-0.872-0.628-0.872zM7.503 12.92h-2.512c-0.079 0.69 0.275 1.017 0.863 1.017 0.51 0 0.942-0.182 1.413-0.436v0.69c-0.471 0.254-0.981 0.436-1.648 0.436-1.099 0-1.805-0.581-1.609-1.889 0.196-1.162 1.060-1.889 2.080-1.889 1.177 0 1.57 0.835 1.374 1.852 0.039 0.073 0.039 0.182 0.039 0.218z"></path>
</symbol>
<symbol id="icon-whatsapp" viewBox="0 0 32 32">
<path fill="#75b73b" style="fill: var(--color16, #75b73b)" d="M16 32c8.837 0 16-7.163 16-16s-7.163-16-16-16c-8.837 0-16 7.163-16 16s7.163 16 16 16z"></path>
<path fill="#fff" style="fill: var(--color3, #fff)" d="M15.552 6.778c-4.877 0.232-8.725 4.294-8.711 9.176 0.005 1.487 0.364 2.891 0.997 4.131l-0.972 4.72c-0.053 0.255 0.178 0.479 0.431 0.419l4.625-1.096c1.188 0.592 2.523 0.934 3.935 0.955 4.985 0.076 9.141-3.882 9.296-8.864 0.166-5.341-4.242-9.696-9.601-9.44zM21.071 20.996c-1.354 1.354-3.155 2.1-5.071 2.1-1.121 0-2.195-0.252-3.192-0.748l-0.644-0.321-2.836 0.672 0.597-2.897-0.317-0.621c-0.517-1.013-0.78-2.108-0.78-3.255 0-1.916 0.746-3.716 2.1-5.071 1.342-1.342 3.172-2.1 5.071-2.1 1.915 0 3.716 0.746 5.070 2.1s2.1 3.155 2.1 5.070c0 1.899-0.758 3.729-2.1 5.071z"></path>
<path fill="#fff" style="fill: var(--color3, #fff)" d="M20.445 17.911l-1.774-0.509c-0.233-0.067-0.484-0.001-0.654 0.173l-0.434 0.442c-0.183 0.187-0.46 0.246-0.703 0.148-0.839-0.34-2.604-1.909-3.055-2.694-0.13-0.227-0.109-0.51 0.051-0.716l0.379-0.49c0.148-0.192 0.18-0.45 0.082-0.672l-0.746-1.688c-0.179-0.404-0.695-0.522-1.033-0.236-0.495 0.419-1.083 1.055-1.154 1.76-0.126 1.243 0.407 2.81 2.423 4.691 2.329 2.174 4.193 2.461 5.408 2.166 0.689-0.167 1.239-0.835 1.586-1.383 0.237-0.374 0.050-0.869-0.375-0.991z"></path>
</symbol>
<symbol id="icon-write-response-icon" viewBox="0 0 32 32">
<path fill="#535353" style="fill: var(--color5, #535353)" d="M30.796 4.907l-3.703-3.703c-0.285-0.284-0.672-0.443-1.074-0.443s-0.789 0.159-1.074 0.443l-8.503 8.503c-0.141 0.142-0.253 0.311-0.329 0.497s-0.114 0.384-0.113 0.585v3.688c0 0.404 0.161 0.792 0.446 1.078s0.673 0.446 1.078 0.446h3.688c0.201 0.001 0.399-0.037 0.585-0.113s0.355-0.188 0.497-0.329l8.503-8.503c0.284-0.285 0.443-0.672 0.443-1.074s-0.159-0.789-0.443-1.074v0zM20.571 12.952h-1.524v-1.524l6.979-6.979 1.524 1.524-6.979 6.979zM26.667 16c-0.404 0-0.792 0.16-1.078 0.446s-0.446 0.673-0.446 1.078c0 2.829-1.124 5.542-3.124 7.542s-4.714 3.124-7.543 3.124h-8.518l0.975-0.96c0.143-0.142 0.256-0.31 0.334-0.496s0.117-0.385 0.117-0.586c0-0.201-0.040-0.4-0.117-0.586s-0.191-0.354-0.334-0.496c-1.492-1.492-2.508-3.392-2.92-5.462s-0.2-4.214 0.607-6.163 2.175-3.615 3.929-4.787c1.754-1.172 3.817-1.798 5.926-1.797 0.404 0 0.792-0.161 1.077-0.446s0.446-0.673 0.446-1.077-0.16-0.792-0.446-1.077c-0.286-0.286-0.673-0.446-1.077-0.446v0c-2.579 0.008-5.104 0.744-7.284 2.122s-3.927 3.343-5.041 5.669c-1.114 2.326-1.549 4.919-1.256 7.482s1.303 4.99 2.914 7.005l-2.606 2.545c-0.211 0.214-0.355 0.486-0.412 0.782s-0.025 0.601 0.092 0.879c0.114 0.278 0.308 0.516 0.558 0.684s0.543 0.259 0.844 0.26h12.19c1.801 0 3.584-0.355 5.248-1.044s3.176-1.7 4.449-2.973 2.284-2.785 2.973-4.449c0.689-1.664 1.044-3.447 1.044-5.248 0-0.404-0.16-0.792-0.446-1.078s-0.673-0.446-1.078-0.446z"></path>
</symbol>
</defs>
</svg>
