<svg aria-hidden="true" style="position: absolute; width: 0; height: 0; overflow: hidden;" version="1.1" xmlns="http://www.w3.org/2000/svg" xmlns:xlink="http://www.w3.org/1999/xlink">
<defs>
<symbol id="icon-logo-header" viewBox="0 0 160 32">
<path fill="#535353" style="fill: var(--color1, #535353)" d="M63.057 23.378h-2.325v-1.196h5.853v1.196h-2.325v5.902h-1.283v-5.902h0.080zM72.357 29.28h-4.249v-7.099h4.089v1.196h-2.886v1.755h2.566v1.196h-2.566v1.834h2.966v1.117h0.080zM78.531 22.182h1.443l-2.405 3.43 2.486 3.589h-1.444l-1.844-2.632-1.844 2.632h-1.443l2.486-3.589-2.405-3.43h1.443l1.764 2.552 1.764-2.552zM87.351 29.28h-1.283v-3.031h-3.208v3.031h-1.283v-7.099h1.283v2.871h3.288v-2.871h1.203v7.099zM89.196 25.771c0-1.037 0.321-1.914 1.042-2.632s1.604-1.037 2.646-1.037c1.042 0 1.924 0.319 2.646 1.037s1.042 1.595 1.042 2.632c0 1.037-0.321 1.914-1.042 2.632s-1.604 1.037-2.646 1.037c-1.043 0-1.924-0.319-2.646-1.037s-1.042-1.595-1.042-2.632zM90.478 25.771c0 0.718 0.241 1.276 0.641 1.755s1.043 0.718 1.684 0.718c0.722 0 1.283-0.239 1.764-0.718 0.401-0.479 0.642-1.037 0.642-1.755s-0.241-1.356-0.722-1.755c-0.481-0.479-1.043-0.718-1.684-0.718-0.721 0-1.283 0.239-1.684 0.718-0.401 0.399-0.641 1.037-0.641 1.755zM103.628 29.28h-1.203v-5.902h-2.084l-0.161 1.356c-0.080 0.798-0.16 1.515-0.321 2.074s-0.241 1.037-0.401 1.356c-0.161 0.319-0.321 0.638-0.561 0.798s-0.401 0.319-0.642 0.319c-0.24 0.080-0.481 0.080-0.801 0v-1.196c0.16 0 0.24 0 0.401 0 0.080 0 0.241-0.16 0.321-0.319 0.161-0.16 0.241-0.399 0.321-0.718 0.241-0.718 0.401-1.834 0.561-3.43l0.080-1.436h4.49v7.099zM105.472 25.771c0-1.037 0.321-1.914 1.042-2.632s1.604-1.037 2.646-1.037c1.042 0 1.924 0.319 2.646 1.037s1.043 1.595 1.043 2.632c0 1.037-0.321 1.914-1.043 2.632s-1.604 1.037-2.646 1.037c-1.043 0-1.924-0.319-2.646-1.037s-1.042-1.595-1.042-2.632zM106.835 25.771c0 0.718 0.241 1.276 0.642 1.755s1.042 0.718 1.684 0.718c0.721 0 1.283-0.239 1.764-0.718 0.401-0.479 0.641-1.037 0.641-1.755s-0.241-1.356-0.721-1.755c-0.481-0.479-1.043-0.718-1.684-0.718-0.722 0-1.283 0.239-1.684 0.718-0.481 0.399-0.642 1.037-0.642 1.755zM115.976 29.28h-1.283v-7.099h4.009v1.196h-2.726v5.902zM121.668 29.28h-1.283v-7.099h1.283v7.099zM123.512 20.985c0-0.16 0.080-0.319 0.161-0.479 0.16-0.080 0.321-0.16 0.481-0.16s0.321 0.080 0.481 0.16c0.161 0.080 0.161 0.239 0.161 0.479s-0.081 0.399-0.161 0.479c-0.080 0.080-0.241 0.16-0.481 0.16-0.16 0-0.321-0.080-0.481-0.16-0.081-0.16-0.161-0.319-0.161-0.479zM125.597 29.28h-1.283v-7.099h1.283v7.099zM125.196 20.985c0-0.16 0.080-0.319 0.16-0.479 0.161-0.080 0.321-0.16 0.481-0.16s0.321 0.080 0.481 0.16c0.16 0.16 0.16 0.239 0.16 0.479s-0.080 0.399-0.16 0.479c-0.080 0.16-0.241 0.16-0.481 0.16s-0.401-0.080-0.481-0.16c-0.080-0.16-0.16-0.319-0.16-0.479zM135.619 27.685l0.481 0.957c-0.241 0.239-0.561 0.399-0.962 0.558s-0.882 0.239-1.283 0.239c-1.123 0-2.004-0.319-2.646-1.037-0.641-0.638-1.043-1.515-1.043-2.632 0-1.037 0.321-1.914 0.963-2.632s1.523-1.037 2.646-1.037c0.882 0 1.604 0.239 2.165 0.718l-0.561 0.957c-0.481-0.319-1.043-0.479-1.604-0.479-0.641 0-1.203 0.239-1.684 0.638-0.401 0.479-0.641 1.037-0.641 1.835 0 0.718 0.241 1.356 0.641 1.834 0.481 0.479 1.043 0.718 1.764 0.718 0.722-0.080 1.283-0.239 1.764-0.638zM143.477 29.28h-1.203v-3.031h-3.288v3.031h-1.283v-7.099h1.283v2.871h3.288v-2.871h1.203v7.099zM150.453 22.182h1.283l-2.405 5.424c-0.241 0.558-0.561 0.957-0.802 1.276-0.321 0.239-0.641 0.399-1.123 0.399s-0.722-0.080-0.963-0.319l0.401-1.037c0.16 0.080 0.321 0.16 0.561 0.16 0.321 0 0.561-0.16 0.721-0.479l0.081-0.239-3.127-5.184h1.443l2.325 3.988 1.604-3.988z"></path>
<path fill="#535353" style="fill: var(--color1, #535353)" d="M59.293 10.058l6.896 8.375h-4.41l-5.532-6.939v6.939h-3.448v-15.713h3.448v6.381l5.292-6.381h4.25l-6.495 7.338zM129.61 5.99h4.811v12.443h3.448v-12.443h4.811v-3.27h-13.149v3.27h0.080zM76.131 12.132l4.891 6.301h-4.17l-4.089-5.583h-1.283v5.583h-3.448v-15.713h0.401c0.721 0 1.523 0 2.405 0s1.604 0 2.165 0c4.811 0 5.853 2.712 5.853 5.025 0 1.196-0.321 2.233-0.962 3.031-0.561 0.558-1.123 1.037-1.764 1.356zM71.881 5.99c-0.161 0-0.241 0-0.401 0v3.589h1.283c0.722 0 1.363-0.16 1.844-0.558 0.401-0.319 0.642-0.798 0.642-1.356 0-0.798-0.241-1.755-2.406-1.755-0.080 0-0.16 0-0.321 0-0.16 0.080-0.401 0.080-0.641 0.080zM124.078 2.72l6.655 15.713h-3.688l-1.523-3.829h-5.853l-1.524 3.829h-3.528l6.575-15.713h2.886zM122.555 7.505l-1.604 3.829h3.207l-1.603-3.829zM159.678 10.616c0 2.313-0.802 4.307-2.325 5.823s-3.528 2.313-5.853 2.313-4.33-0.718-5.853-2.233c-1.524-1.516-2.325-3.43-2.325-5.823 0-2.233 0.801-4.227 2.325-5.743s3.528-2.313 5.853-2.313 4.33 0.718 5.853 2.233c1.523 1.356 2.325 3.35 2.325 5.743zM154.867 14.046c0.882-0.957 1.283-2.074 1.283-3.51s-0.401-2.552-1.363-3.51c-0.882-0.877-2.004-1.356-3.288-1.356-1.363 0-2.405 0.479-3.287 1.356s-1.283 2.074-1.283 3.51 0.401 2.552 1.283 3.43c0.882 0.957 1.924 1.356 3.287 1.356 1.443 0.080 2.486-0.319 3.368-1.276zM112.692 2.72l-4.009 10.369-4.17-10.369h-3.688l6.495 15.713h2.566l6.334-15.713h-3.528z"></path>
<path fill="#00b5ff" style="fill: var(--color2, #00b5ff)" d="M97.985 4.156c-0.964-0.958-2.251-1.517-3.617-1.517s-2.652 0.559-3.617 1.517l-0.241 0.239-0.322-0.319c-0.964-0.958-2.25-1.517-3.617-1.517s-2.653 0.559-3.617 1.517-1.528 2.235-1.528 3.592c0 1.357 0.563 2.634 1.528 3.592l6.993 6.944c0.161 0.16 0.321 0.239 0.563 0.239s0.402-0.080 0.563-0.239l6.993-6.944c0.964-0.958 1.527-2.235 1.527-3.592s-0.563-2.554-1.608-3.512z"></path>
<path fill="#ffbc00" style="fill: var(--color3, #ffbc00)" d="M80.828 9.167h19.243v9.654h-19.243v-9.654z"></path>
<path fill="#ffbc57" style="fill: var(--color4, #ffbc57)" d="M4.63 11.776v16.896c0 0.461-0.309 0.768-0.772 0.768h-3.087c-0.463 0-0.772-0.307-0.772-0.768v-16.896c0-0.461 0.309-0.768 0.772-0.768h3.087c0.463 0 0.772 0.384 0.772 0.768zM46.588 11.008h-3.087c-0.463 0-0.772 0.307-0.772 0.768v16.896c0 0.461 0.309 0.768 0.772 0.768h3.087c0.463 0 0.772-0.307 0.772-0.768v-16.896c0-0.384-0.309-0.768-0.772-0.768z"></path>
<path fill="#ffbc57" style="fill: var(--color4, #ffbc57)" d="M41.186 16.384v4.608c0 0.461-0.309 0.768-0.772 0.768h-33.469c-0.463 0-0.772-0.307-0.772-0.768v-4.608c0-0.461 0.309-0.768 0.772-0.768h33.469c0.463 0 0.772 0.307 0.772 0.768zM6.945 14.080h9.098c0.463 0 0.772-0.307 0.772-0.768v-9.984c0-0.461-0.309-0.768-0.772-0.768h-9.098c-0.463 0-0.772 0.307-0.772 0.768v9.984c0 0.461 0.309 0.768 0.772 0.768zM19.131 14.080h9.099c0.463 0 0.772-0.307 0.772-0.768v-9.984c0-0.461-0.309-0.768-0.772-0.768h-9.099c-0.463 0-0.772 0.307-0.772 0.768v9.984c0 0.461 0.309 0.768 0.772 0.768zM40.415 2.56h-9.099c-0.463 0-0.772 0.307-0.772 0.768v9.984c0 0.461 0.309 0.768 0.772 0.768h9.099c0.463 0 0.772-0.307 0.772-0.768v-9.984c0-0.461-0.309-0.768-0.772-0.768zM40.415 23.296h-33.469c-0.463 0-0.772 0.307-0.772 0.768v4.608c0 0.461 0.309 0.768 0.772 0.768h4.468c0.463 0 0.772-0.307 0.772-0.768v-0.768h22.989v0.768c0 0.461 0.309 0.768 0.772 0.768h4.468c0.463 0 0.772-0.307 0.772-0.768v-4.608c0-0.461-0.309-0.768-0.772-0.768z"></path>
</symbol>
</defs>
</svg>
