<svg aria-hidden="true" style="position: absolute; width: 0; height: 0; overflow: hidden;" version="1.1" xmlns="http://www.w3.org/2000/svg" xmlns:xlink="http://www.w3.org/1999/xlink">
<defs>
<symbol id="vector-icon" viewBox="0 0 21 32">
<path fill="#ffbc57" style="fill: var(--color1, #ffbc57)" d="M18.214 14.107l-11.307-11.307c-0.248-0.25-0.543-0.448-0.868-0.584s-0.673-0.205-1.026-0.205c-0.352 0-0.701 0.070-1.026 0.205s-0.62 0.334-0.868 0.584c-0.497 0.5-0.775 1.175-0.775 1.88s0.279 1.38 0.775 1.88l9.44 9.44-9.44 9.44c-0.497 0.5-0.775 1.175-0.775 1.88s0.279 1.38 0.775 1.88c0.249 0.247 0.545 0.443 0.87 0.575s0.673 0.2 1.024 0.198c0.351 0.002 0.699-0.065 1.024-0.198s0.62-0.328 0.87-0.575l11.307-11.307c0.25-0.248 0.448-0.543 0.584-0.868s0.205-0.674 0.205-1.026c0-0.352-0.070-0.701-0.205-1.026s-0.334-0.62-0.584-0.868z"></path>
</symbol>
</defs>
</svg>
